<mxfile host="app.diagrams.net" modified="2024-05-23T00:07:04.845Z" agent="Mozilla/5.0 (Windows NT 10.0; Win64; x64) AppleWebKit/537.36 (KHTML, like Gecko) Chrome/124.0.0.0 Safari/537.36" etag="08QMQ1Thk_6YKmYts_82" version="22.1.20" type="device">
  <diagram name="Page-1" id="odn97zmu7sJqkaf3bA6Y">
    <mxGraphModel dx="2625" dy="1458" grid="1" gridSize="10" guides="1" tooltips="1" connect="1" arrows="1" fold="1" page="1" pageScale="1" pageWidth="850" pageHeight="1100" math="0" shadow="0">
      <root>
        <mxCell id="0" />
        <mxCell id="1" parent="0" />
        <mxCell id="J23fnJiVZXDmJQaBqTvZ-1" value="" style="ellipse;whiteSpace=wrap;html=1;aspect=fixed;fillColor=#B3B3B3;" vertex="1" parent="1">
          <mxGeometry x="90" y="220" width="80" height="80" as="geometry" />
        </mxCell>
        <mxCell id="J23fnJiVZXDmJQaBqTvZ-2" value="" style="ellipse;whiteSpace=wrap;html=1;aspect=fixed;" vertex="1" parent="1">
          <mxGeometry x="90" y="70" width="80" height="80" as="geometry" />
        </mxCell>
        <mxCell id="J23fnJiVZXDmJQaBqTvZ-3" value="" style="ellipse;whiteSpace=wrap;html=1;aspect=fixed;" vertex="1" parent="1">
          <mxGeometry x="230" y="220" width="80" height="80" as="geometry" />
        </mxCell>
        <mxCell id="J23fnJiVZXDmJQaBqTvZ-4" value="" style="ellipse;whiteSpace=wrap;html=1;aspect=fixed;" vertex="1" parent="1">
          <mxGeometry x="230" y="70" width="80" height="80" as="geometry" />
        </mxCell>
        <mxCell id="J23fnJiVZXDmJQaBqTvZ-5" value="" style="ellipse;whiteSpace=wrap;html=1;aspect=fixed;" vertex="1" parent="1">
          <mxGeometry x="360" y="220" width="80" height="80" as="geometry" />
        </mxCell>
        <mxCell id="J23fnJiVZXDmJQaBqTvZ-6" value="" style="ellipse;whiteSpace=wrap;html=1;aspect=fixed;" vertex="1" parent="1">
          <mxGeometry x="360" y="70" width="80" height="80" as="geometry" />
        </mxCell>
        <mxCell id="J23fnJiVZXDmJQaBqTvZ-7" value="" style="ellipse;whiteSpace=wrap;html=1;aspect=fixed;" vertex="1" parent="1">
          <mxGeometry x="490" y="220" width="80" height="80" as="geometry" />
        </mxCell>
        <mxCell id="J23fnJiVZXDmJQaBqTvZ-8" value="" style="ellipse;whiteSpace=wrap;html=1;aspect=fixed;" vertex="1" parent="1">
          <mxGeometry x="490" y="70" width="80" height="80" as="geometry" />
        </mxCell>
        <mxCell id="J23fnJiVZXDmJQaBqTvZ-11" value="&lt;font style=&quot;font-size: 48px;&quot;&gt;(A)&lt;/font&gt;" style="text;html=1;strokeColor=none;fillColor=none;align=center;verticalAlign=middle;whiteSpace=wrap;rounded=0;" vertex="1" parent="1">
          <mxGeometry x="10" y="50" width="60" height="30" as="geometry" />
        </mxCell>
        <mxCell id="J23fnJiVZXDmJQaBqTvZ-12" value="&lt;font style=&quot;font-size: 48px;&quot;&gt;Q&lt;/font&gt;" style="text;html=1;strokeColor=none;fillColor=none;align=center;verticalAlign=middle;whiteSpace=wrap;rounded=0;" vertex="1" parent="1">
          <mxGeometry x="610" y="160" width="60" height="30" as="geometry" />
        </mxCell>
        <mxCell id="J23fnJiVZXDmJQaBqTvZ-13" value="" style="shape=image;html=1;verticalAlign=top;verticalLabelPosition=bottom;labelBackgroundColor=#ffffff;imageAspect=0;aspect=fixed;image=https://cdn1.iconfinder.com/data/icons/bootstrap-vol-3/16/infinity-128.png" vertex="1" parent="1">
          <mxGeometry x="100" y="80" width="60" height="60" as="geometry" />
        </mxCell>
        <mxCell id="J23fnJiVZXDmJQaBqTvZ-14" value="" style="shape=image;html=1;verticalAlign=top;verticalLabelPosition=bottom;labelBackgroundColor=#ffffff;imageAspect=0;aspect=fixed;image=https://cdn1.iconfinder.com/data/icons/bootstrap-vol-3/16/infinity-128.png" vertex="1" parent="1">
          <mxGeometry x="240" y="80" width="60" height="60" as="geometry" />
        </mxCell>
        <mxCell id="J23fnJiVZXDmJQaBqTvZ-15" value="" style="shape=image;html=1;verticalAlign=top;verticalLabelPosition=bottom;labelBackgroundColor=#ffffff;imageAspect=0;aspect=fixed;image=https://cdn1.iconfinder.com/data/icons/bootstrap-vol-3/16/infinity-128.png" vertex="1" parent="1">
          <mxGeometry x="370" y="80" width="60" height="60" as="geometry" />
        </mxCell>
        <mxCell id="J23fnJiVZXDmJQaBqTvZ-16" value="" style="shape=image;html=1;verticalAlign=top;verticalLabelPosition=bottom;labelBackgroundColor=#ffffff;imageAspect=0;aspect=fixed;image=https://cdn1.iconfinder.com/data/icons/bootstrap-vol-3/16/infinity-128.png" vertex="1" parent="1">
          <mxGeometry x="500" y="80" width="60" height="60" as="geometry" />
        </mxCell>
        <mxCell id="J23fnJiVZXDmJQaBqTvZ-17" value="" style="shape=image;html=1;verticalAlign=top;verticalLabelPosition=bottom;labelBackgroundColor=#ffffff;imageAspect=0;aspect=fixed;image=https://cdn1.iconfinder.com/data/icons/bootstrap-vol-3/16/infinity-128.png" vertex="1" parent="1">
          <mxGeometry x="240" y="230" width="60" height="60" as="geometry" />
        </mxCell>
        <mxCell id="J23fnJiVZXDmJQaBqTvZ-18" value="" style="shape=image;html=1;verticalAlign=top;verticalLabelPosition=bottom;labelBackgroundColor=#ffffff;imageAspect=0;aspect=fixed;image=https://cdn1.iconfinder.com/data/icons/bootstrap-vol-3/16/infinity-128.png" vertex="1" parent="1">
          <mxGeometry x="370" y="230" width="60" height="60" as="geometry" />
        </mxCell>
        <mxCell id="J23fnJiVZXDmJQaBqTvZ-19" value="" style="shape=image;html=1;verticalAlign=top;verticalLabelPosition=bottom;labelBackgroundColor=#ffffff;imageAspect=0;aspect=fixed;image=https://cdn1.iconfinder.com/data/icons/bootstrap-vol-3/16/infinity-128.png" vertex="1" parent="1">
          <mxGeometry x="500" y="230" width="60" height="60" as="geometry" />
        </mxCell>
        <mxCell id="J23fnJiVZXDmJQaBqTvZ-20" value="" style="whiteSpace=wrap;html=1;aspect=fixed;fillColor=#B3B3B3;" vertex="1" parent="1">
          <mxGeometry x="670" y="150" width="50" height="50" as="geometry" />
        </mxCell>
        <mxCell id="J23fnJiVZXDmJQaBqTvZ-21" value="&lt;span style=&quot;font-size: 24px;&quot;&gt;v&lt;/span&gt;" style="text;html=1;strokeColor=none;fillColor=none;align=center;verticalAlign=middle;whiteSpace=wrap;rounded=0;" vertex="1" parent="1">
          <mxGeometry x="665" y="160" width="60" height="30" as="geometry" />
        </mxCell>
        <mxCell id="J23fnJiVZXDmJQaBqTvZ-22" value="&lt;span style=&quot;font-size: 24px;&quot;&gt;v&lt;/span&gt;" style="text;html=1;strokeColor=none;fillColor=none;align=center;verticalAlign=middle;whiteSpace=wrap;rounded=0;" vertex="1" parent="1">
          <mxGeometry x="100" y="310" width="60" height="30" as="geometry" />
        </mxCell>
        <mxCell id="J23fnJiVZXDmJQaBqTvZ-23" value="&lt;span style=&quot;font-size: 24px;&quot;&gt;w&lt;/span&gt;" style="text;html=1;strokeColor=none;fillColor=none;align=center;verticalAlign=middle;whiteSpace=wrap;rounded=0;" vertex="1" parent="1">
          <mxGeometry x="240" y="310" width="60" height="30" as="geometry" />
        </mxCell>
        <mxCell id="J23fnJiVZXDmJQaBqTvZ-24" value="&lt;span style=&quot;font-size: 24px;&quot;&gt;x&lt;/span&gt;" style="text;html=1;strokeColor=none;fillColor=none;align=center;verticalAlign=middle;whiteSpace=wrap;rounded=0;" vertex="1" parent="1">
          <mxGeometry x="370" y="310" width="60" height="30" as="geometry" />
        </mxCell>
        <mxCell id="J23fnJiVZXDmJQaBqTvZ-25" value="&lt;span style=&quot;font-size: 24px;&quot;&gt;y&lt;/span&gt;" style="text;html=1;strokeColor=none;fillColor=none;align=center;verticalAlign=middle;whiteSpace=wrap;rounded=0;" vertex="1" parent="1">
          <mxGeometry x="500" y="310" width="60" height="30" as="geometry" />
        </mxCell>
        <mxCell id="J23fnJiVZXDmJQaBqTvZ-26" value="&lt;span style=&quot;font-size: 24px;&quot;&gt;r&lt;/span&gt;" style="text;html=1;strokeColor=none;fillColor=none;align=center;verticalAlign=middle;whiteSpace=wrap;rounded=0;" vertex="1" parent="1">
          <mxGeometry x="100" y="30" width="60" height="30" as="geometry" />
        </mxCell>
        <mxCell id="J23fnJiVZXDmJQaBqTvZ-27" value="&lt;span style=&quot;font-size: 24px;&quot;&gt;s&lt;/span&gt;" style="text;html=1;strokeColor=none;fillColor=none;align=center;verticalAlign=middle;whiteSpace=wrap;rounded=0;" vertex="1" parent="1">
          <mxGeometry x="240" y="30" width="60" height="30" as="geometry" />
        </mxCell>
        <mxCell id="J23fnJiVZXDmJQaBqTvZ-28" value="&lt;span style=&quot;font-size: 24px;&quot;&gt;t&lt;/span&gt;" style="text;html=1;strokeColor=none;fillColor=none;align=center;verticalAlign=middle;whiteSpace=wrap;rounded=0;" vertex="1" parent="1">
          <mxGeometry x="370" y="30" width="60" height="30" as="geometry" />
        </mxCell>
        <mxCell id="J23fnJiVZXDmJQaBqTvZ-29" value="&lt;span style=&quot;font-size: 24px;&quot;&gt;u&lt;/span&gt;" style="text;html=1;strokeColor=none;fillColor=none;align=center;verticalAlign=middle;whiteSpace=wrap;rounded=0;" vertex="1" parent="1">
          <mxGeometry x="500" y="30" width="60" height="30" as="geometry" />
        </mxCell>
        <mxCell id="J23fnJiVZXDmJQaBqTvZ-30" value="&lt;font style=&quot;font-size: 36px;&quot;&gt;0&lt;/font&gt;" style="text;html=1;strokeColor=none;fillColor=none;align=center;verticalAlign=middle;whiteSpace=wrap;rounded=0;" vertex="1" parent="1">
          <mxGeometry x="100" y="245" width="60" height="30" as="geometry" />
        </mxCell>
        <mxCell id="J23fnJiVZXDmJQaBqTvZ-37" value="" style="endArrow=none;html=1;rounded=0;exitX=0.5;exitY=0;exitDx=0;exitDy=0;entryX=0.5;entryY=1;entryDx=0;entryDy=0;" edge="1" parent="1" source="J23fnJiVZXDmJQaBqTvZ-5" target="J23fnJiVZXDmJQaBqTvZ-6">
          <mxGeometry width="50" height="50" relative="1" as="geometry">
            <mxPoint x="390" y="190" as="sourcePoint" />
            <mxPoint x="440" y="140" as="targetPoint" />
          </mxGeometry>
        </mxCell>
        <mxCell id="J23fnJiVZXDmJQaBqTvZ-38" value="" style="endArrow=none;html=1;rounded=0;exitX=0.5;exitY=0;exitDx=0;exitDy=0;entryX=0.5;entryY=1;entryDx=0;entryDy=0;" edge="1" parent="1" source="J23fnJiVZXDmJQaBqTvZ-1" target="J23fnJiVZXDmJQaBqTvZ-2">
          <mxGeometry width="50" height="50" relative="1" as="geometry">
            <mxPoint x="20" y="240" as="sourcePoint" />
            <mxPoint x="70" y="190" as="targetPoint" />
          </mxGeometry>
        </mxCell>
        <mxCell id="J23fnJiVZXDmJQaBqTvZ-39" value="" style="endArrow=none;html=1;rounded=0;exitX=1;exitY=0.5;exitDx=0;exitDy=0;entryX=0;entryY=0.5;entryDx=0;entryDy=0;" edge="1" parent="1" source="J23fnJiVZXDmJQaBqTvZ-2" target="J23fnJiVZXDmJQaBqTvZ-4">
          <mxGeometry width="50" height="50" relative="1" as="geometry">
            <mxPoint x="40" y="370" as="sourcePoint" />
            <mxPoint x="90" y="320" as="targetPoint" />
          </mxGeometry>
        </mxCell>
        <mxCell id="J23fnJiVZXDmJQaBqTvZ-40" value="" style="endArrow=none;html=1;rounded=0;entryX=0.5;entryY=1;entryDx=0;entryDy=0;exitX=0.5;exitY=0;exitDx=0;exitDy=0;" edge="1" parent="1" source="J23fnJiVZXDmJQaBqTvZ-3" target="J23fnJiVZXDmJQaBqTvZ-4">
          <mxGeometry width="50" height="50" relative="1" as="geometry">
            <mxPoint x="100" y="420" as="sourcePoint" />
            <mxPoint x="150" y="370" as="targetPoint" />
          </mxGeometry>
        </mxCell>
        <mxCell id="J23fnJiVZXDmJQaBqTvZ-41" value="" style="endArrow=none;html=1;rounded=0;exitX=1;exitY=0.5;exitDx=0;exitDy=0;entryX=0;entryY=0.5;entryDx=0;entryDy=0;" edge="1" parent="1" source="J23fnJiVZXDmJQaBqTvZ-3" target="J23fnJiVZXDmJQaBqTvZ-5">
          <mxGeometry width="50" height="50" relative="1" as="geometry">
            <mxPoint x="190" y="420" as="sourcePoint" />
            <mxPoint x="240" y="370" as="targetPoint" />
          </mxGeometry>
        </mxCell>
        <mxCell id="J23fnJiVZXDmJQaBqTvZ-42" value="" style="endArrow=none;html=1;rounded=0;entryX=1;entryY=0.5;entryDx=0;entryDy=0;exitX=0;exitY=0.5;exitDx=0;exitDy=0;" edge="1" parent="1" source="J23fnJiVZXDmJQaBqTvZ-7" target="J23fnJiVZXDmJQaBqTvZ-5">
          <mxGeometry width="50" height="50" relative="1" as="geometry">
            <mxPoint x="270" y="430" as="sourcePoint" />
            <mxPoint x="320" y="380" as="targetPoint" />
          </mxGeometry>
        </mxCell>
        <mxCell id="J23fnJiVZXDmJQaBqTvZ-43" value="" style="endArrow=none;html=1;rounded=0;entryX=0.5;entryY=0;entryDx=0;entryDy=0;exitX=0.5;exitY=1;exitDx=0;exitDy=0;" edge="1" parent="1" source="J23fnJiVZXDmJQaBqTvZ-8" target="J23fnJiVZXDmJQaBqTvZ-7">
          <mxGeometry width="50" height="50" relative="1" as="geometry">
            <mxPoint x="380" y="410" as="sourcePoint" />
            <mxPoint x="430" y="360" as="targetPoint" />
          </mxGeometry>
        </mxCell>
        <mxCell id="J23fnJiVZXDmJQaBqTvZ-44" value="" style="endArrow=none;html=1;rounded=0;entryX=1;entryY=0;entryDx=0;entryDy=0;exitX=0;exitY=1;exitDx=0;exitDy=0;" edge="1" parent="1" source="J23fnJiVZXDmJQaBqTvZ-6" target="J23fnJiVZXDmJQaBqTvZ-3">
          <mxGeometry width="50" height="50" relative="1" as="geometry">
            <mxPoint x="150" y="420" as="sourcePoint" />
            <mxPoint x="200" y="370" as="targetPoint" />
          </mxGeometry>
        </mxCell>
        <mxCell id="J23fnJiVZXDmJQaBqTvZ-45" value="" style="endArrow=none;html=1;rounded=0;entryX=1;entryY=0.5;entryDx=0;entryDy=0;exitX=0;exitY=0.5;exitDx=0;exitDy=0;" edge="1" parent="1" source="J23fnJiVZXDmJQaBqTvZ-8" target="J23fnJiVZXDmJQaBqTvZ-6">
          <mxGeometry width="50" height="50" relative="1" as="geometry">
            <mxPoint x="290" y="440" as="sourcePoint" />
            <mxPoint x="340" y="390" as="targetPoint" />
          </mxGeometry>
        </mxCell>
        <mxCell id="J23fnJiVZXDmJQaBqTvZ-46" value="" style="endArrow=none;html=1;rounded=0;entryX=1;entryY=0;entryDx=0;entryDy=0;exitX=0;exitY=1;exitDx=0;exitDy=0;" edge="1" parent="1" source="J23fnJiVZXDmJQaBqTvZ-8" target="J23fnJiVZXDmJQaBqTvZ-18">
          <mxGeometry width="50" height="50" relative="1" as="geometry">
            <mxPoint x="280" y="440" as="sourcePoint" />
            <mxPoint x="330" y="390" as="targetPoint" />
          </mxGeometry>
        </mxCell>
        <mxCell id="J23fnJiVZXDmJQaBqTvZ-47" value="&lt;font style=&quot;font-size: 36px;&quot;&gt;0&lt;/font&gt;" style="text;html=1;strokeColor=none;fillColor=none;align=center;verticalAlign=middle;whiteSpace=wrap;rounded=0;" vertex="1" parent="1">
          <mxGeometry x="682.5" y="210" width="25" height="20" as="geometry" />
        </mxCell>
        <mxCell id="J23fnJiVZXDmJQaBqTvZ-48" value="" style="ellipse;whiteSpace=wrap;html=1;aspect=fixed;fillColor=#000000;" vertex="1" parent="1">
          <mxGeometry x="120" y="600" width="80" height="80" as="geometry" />
        </mxCell>
        <mxCell id="J23fnJiVZXDmJQaBqTvZ-49" value="" style="ellipse;whiteSpace=wrap;html=1;aspect=fixed;fillColor=#B3B3B3;" vertex="1" parent="1">
          <mxGeometry x="120" y="450" width="80" height="80" as="geometry" />
        </mxCell>
        <mxCell id="J23fnJiVZXDmJQaBqTvZ-50" value="" style="ellipse;whiteSpace=wrap;html=1;aspect=fixed;" vertex="1" parent="1">
          <mxGeometry x="260" y="600" width="80" height="80" as="geometry" />
        </mxCell>
        <mxCell id="J23fnJiVZXDmJQaBqTvZ-51" value="" style="ellipse;whiteSpace=wrap;html=1;aspect=fixed;" vertex="1" parent="1">
          <mxGeometry x="260" y="450" width="80" height="80" as="geometry" />
        </mxCell>
        <mxCell id="J23fnJiVZXDmJQaBqTvZ-52" value="" style="ellipse;whiteSpace=wrap;html=1;aspect=fixed;" vertex="1" parent="1">
          <mxGeometry x="390" y="600" width="80" height="80" as="geometry" />
        </mxCell>
        <mxCell id="J23fnJiVZXDmJQaBqTvZ-53" value="" style="ellipse;whiteSpace=wrap;html=1;aspect=fixed;" vertex="1" parent="1">
          <mxGeometry x="390" y="450" width="80" height="80" as="geometry" />
        </mxCell>
        <mxCell id="J23fnJiVZXDmJQaBqTvZ-54" value="" style="ellipse;whiteSpace=wrap;html=1;aspect=fixed;" vertex="1" parent="1">
          <mxGeometry x="520" y="600" width="80" height="80" as="geometry" />
        </mxCell>
        <mxCell id="J23fnJiVZXDmJQaBqTvZ-55" value="" style="ellipse;whiteSpace=wrap;html=1;aspect=fixed;" vertex="1" parent="1">
          <mxGeometry x="520" y="450" width="80" height="80" as="geometry" />
        </mxCell>
        <mxCell id="J23fnJiVZXDmJQaBqTvZ-56" value="&lt;font style=&quot;font-size: 48px;&quot;&gt;(B)&lt;/font&gt;" style="text;html=1;strokeColor=none;fillColor=none;align=center;verticalAlign=middle;whiteSpace=wrap;rounded=0;" vertex="1" parent="1">
          <mxGeometry x="40" y="430" width="60" height="30" as="geometry" />
        </mxCell>
        <mxCell id="J23fnJiVZXDmJQaBqTvZ-57" value="&lt;font style=&quot;font-size: 48px;&quot;&gt;Q&lt;/font&gt;" style="text;html=1;strokeColor=none;fillColor=none;align=center;verticalAlign=middle;whiteSpace=wrap;rounded=0;" vertex="1" parent="1">
          <mxGeometry x="640" y="540" width="60" height="30" as="geometry" />
        </mxCell>
        <mxCell id="J23fnJiVZXDmJQaBqTvZ-59" value="" style="shape=image;html=1;verticalAlign=top;verticalLabelPosition=bottom;labelBackgroundColor=#ffffff;imageAspect=0;aspect=fixed;image=https://cdn1.iconfinder.com/data/icons/bootstrap-vol-3/16/infinity-128.png" vertex="1" parent="1">
          <mxGeometry x="270" y="460" width="60" height="60" as="geometry" />
        </mxCell>
        <mxCell id="J23fnJiVZXDmJQaBqTvZ-60" value="" style="shape=image;html=1;verticalAlign=top;verticalLabelPosition=bottom;labelBackgroundColor=#ffffff;imageAspect=0;aspect=fixed;image=https://cdn1.iconfinder.com/data/icons/bootstrap-vol-3/16/infinity-128.png" vertex="1" parent="1">
          <mxGeometry x="400" y="460" width="60" height="60" as="geometry" />
        </mxCell>
        <mxCell id="J23fnJiVZXDmJQaBqTvZ-61" value="" style="shape=image;html=1;verticalAlign=top;verticalLabelPosition=bottom;labelBackgroundColor=#ffffff;imageAspect=0;aspect=fixed;image=https://cdn1.iconfinder.com/data/icons/bootstrap-vol-3/16/infinity-128.png" vertex="1" parent="1">
          <mxGeometry x="530" y="460" width="60" height="60" as="geometry" />
        </mxCell>
        <mxCell id="J23fnJiVZXDmJQaBqTvZ-62" value="" style="shape=image;html=1;verticalAlign=top;verticalLabelPosition=bottom;labelBackgroundColor=#ffffff;imageAspect=0;aspect=fixed;image=https://cdn1.iconfinder.com/data/icons/bootstrap-vol-3/16/infinity-128.png" vertex="1" parent="1">
          <mxGeometry x="270" y="610" width="60" height="60" as="geometry" />
        </mxCell>
        <mxCell id="J23fnJiVZXDmJQaBqTvZ-63" value="" style="shape=image;html=1;verticalAlign=top;verticalLabelPosition=bottom;labelBackgroundColor=#ffffff;imageAspect=0;aspect=fixed;image=https://cdn1.iconfinder.com/data/icons/bootstrap-vol-3/16/infinity-128.png" vertex="1" parent="1">
          <mxGeometry x="400" y="610" width="60" height="60" as="geometry" />
        </mxCell>
        <mxCell id="J23fnJiVZXDmJQaBqTvZ-64" value="" style="shape=image;html=1;verticalAlign=top;verticalLabelPosition=bottom;labelBackgroundColor=#ffffff;imageAspect=0;aspect=fixed;image=https://cdn1.iconfinder.com/data/icons/bootstrap-vol-3/16/infinity-128.png" vertex="1" parent="1">
          <mxGeometry x="530" y="610" width="60" height="60" as="geometry" />
        </mxCell>
        <mxCell id="J23fnJiVZXDmJQaBqTvZ-65" value="" style="whiteSpace=wrap;html=1;aspect=fixed;fillColor=#B3B3B3;" vertex="1" parent="1">
          <mxGeometry x="700" y="530" width="50" height="50" as="geometry" />
        </mxCell>
        <mxCell id="J23fnJiVZXDmJQaBqTvZ-66" value="&lt;span style=&quot;font-size: 24px;&quot;&gt;r&lt;/span&gt;" style="text;html=1;strokeColor=none;fillColor=none;align=center;verticalAlign=middle;whiteSpace=wrap;rounded=0;" vertex="1" parent="1">
          <mxGeometry x="695" y="540" width="60" height="30" as="geometry" />
        </mxCell>
        <mxCell id="J23fnJiVZXDmJQaBqTvZ-67" value="&lt;span style=&quot;font-size: 24px;&quot;&gt;v&lt;/span&gt;" style="text;html=1;strokeColor=none;fillColor=none;align=center;verticalAlign=middle;whiteSpace=wrap;rounded=0;" vertex="1" parent="1">
          <mxGeometry x="130" y="690" width="60" height="30" as="geometry" />
        </mxCell>
        <mxCell id="J23fnJiVZXDmJQaBqTvZ-68" value="&lt;span style=&quot;font-size: 24px;&quot;&gt;w&lt;/span&gt;" style="text;html=1;strokeColor=none;fillColor=none;align=center;verticalAlign=middle;whiteSpace=wrap;rounded=0;" vertex="1" parent="1">
          <mxGeometry x="270" y="690" width="60" height="30" as="geometry" />
        </mxCell>
        <mxCell id="J23fnJiVZXDmJQaBqTvZ-69" value="&lt;span style=&quot;font-size: 24px;&quot;&gt;x&lt;/span&gt;" style="text;html=1;strokeColor=none;fillColor=none;align=center;verticalAlign=middle;whiteSpace=wrap;rounded=0;" vertex="1" parent="1">
          <mxGeometry x="400" y="690" width="60" height="30" as="geometry" />
        </mxCell>
        <mxCell id="J23fnJiVZXDmJQaBqTvZ-70" value="&lt;span style=&quot;font-size: 24px;&quot;&gt;y&lt;/span&gt;" style="text;html=1;strokeColor=none;fillColor=none;align=center;verticalAlign=middle;whiteSpace=wrap;rounded=0;" vertex="1" parent="1">
          <mxGeometry x="530" y="690" width="60" height="30" as="geometry" />
        </mxCell>
        <mxCell id="J23fnJiVZXDmJQaBqTvZ-71" value="&lt;span style=&quot;font-size: 24px;&quot;&gt;r&lt;/span&gt;" style="text;html=1;strokeColor=none;fillColor=none;align=center;verticalAlign=middle;whiteSpace=wrap;rounded=0;" vertex="1" parent="1">
          <mxGeometry x="130" y="410" width="60" height="30" as="geometry" />
        </mxCell>
        <mxCell id="J23fnJiVZXDmJQaBqTvZ-72" value="&lt;span style=&quot;font-size: 24px;&quot;&gt;s&lt;/span&gt;" style="text;html=1;strokeColor=none;fillColor=none;align=center;verticalAlign=middle;whiteSpace=wrap;rounded=0;" vertex="1" parent="1">
          <mxGeometry x="270" y="410" width="60" height="30" as="geometry" />
        </mxCell>
        <mxCell id="J23fnJiVZXDmJQaBqTvZ-73" value="&lt;span style=&quot;font-size: 24px;&quot;&gt;t&lt;/span&gt;" style="text;html=1;strokeColor=none;fillColor=none;align=center;verticalAlign=middle;whiteSpace=wrap;rounded=0;" vertex="1" parent="1">
          <mxGeometry x="400" y="410" width="60" height="30" as="geometry" />
        </mxCell>
        <mxCell id="J23fnJiVZXDmJQaBqTvZ-74" value="&lt;span style=&quot;font-size: 24px;&quot;&gt;u&lt;/span&gt;" style="text;html=1;strokeColor=none;fillColor=none;align=center;verticalAlign=middle;whiteSpace=wrap;rounded=0;" vertex="1" parent="1">
          <mxGeometry x="530" y="410" width="60" height="30" as="geometry" />
        </mxCell>
        <mxCell id="J23fnJiVZXDmJQaBqTvZ-75" value="&lt;font color=&quot;#ffffff&quot; style=&quot;font-size: 36px;&quot;&gt;0&lt;/font&gt;" style="text;html=1;strokeColor=none;fillColor=none;align=center;verticalAlign=middle;whiteSpace=wrap;rounded=0;" vertex="1" parent="1">
          <mxGeometry x="130" y="625" width="60" height="30" as="geometry" />
        </mxCell>
        <mxCell id="J23fnJiVZXDmJQaBqTvZ-76" value="" style="endArrow=none;html=1;rounded=0;exitX=0.5;exitY=0;exitDx=0;exitDy=0;entryX=0.5;entryY=1;entryDx=0;entryDy=0;" edge="1" parent="1" source="J23fnJiVZXDmJQaBqTvZ-52" target="J23fnJiVZXDmJQaBqTvZ-53">
          <mxGeometry width="50" height="50" relative="1" as="geometry">
            <mxPoint x="420" y="570" as="sourcePoint" />
            <mxPoint x="470" y="520" as="targetPoint" />
          </mxGeometry>
        </mxCell>
        <mxCell id="J23fnJiVZXDmJQaBqTvZ-77" value="" style="endArrow=none;html=1;rounded=0;exitX=0.5;exitY=0;exitDx=0;exitDy=0;entryX=0.5;entryY=1;entryDx=0;entryDy=0;" edge="1" parent="1" source="J23fnJiVZXDmJQaBqTvZ-48" target="J23fnJiVZXDmJQaBqTvZ-49">
          <mxGeometry width="50" height="50" relative="1" as="geometry">
            <mxPoint x="50" y="620" as="sourcePoint" />
            <mxPoint x="100" y="570" as="targetPoint" />
          </mxGeometry>
        </mxCell>
        <mxCell id="J23fnJiVZXDmJQaBqTvZ-78" value="" style="endArrow=none;html=1;rounded=0;exitX=1;exitY=0.5;exitDx=0;exitDy=0;entryX=0;entryY=0.5;entryDx=0;entryDy=0;" edge="1" parent="1" source="J23fnJiVZXDmJQaBqTvZ-49" target="J23fnJiVZXDmJQaBqTvZ-51">
          <mxGeometry width="50" height="50" relative="1" as="geometry">
            <mxPoint x="70" y="750" as="sourcePoint" />
            <mxPoint x="120" y="700" as="targetPoint" />
          </mxGeometry>
        </mxCell>
        <mxCell id="J23fnJiVZXDmJQaBqTvZ-79" value="" style="endArrow=none;html=1;rounded=0;entryX=0.5;entryY=1;entryDx=0;entryDy=0;exitX=0.5;exitY=0;exitDx=0;exitDy=0;" edge="1" parent="1" source="J23fnJiVZXDmJQaBqTvZ-50" target="J23fnJiVZXDmJQaBqTvZ-51">
          <mxGeometry width="50" height="50" relative="1" as="geometry">
            <mxPoint x="130" y="800" as="sourcePoint" />
            <mxPoint x="180" y="750" as="targetPoint" />
          </mxGeometry>
        </mxCell>
        <mxCell id="J23fnJiVZXDmJQaBqTvZ-80" value="" style="endArrow=none;html=1;rounded=0;exitX=1;exitY=0.5;exitDx=0;exitDy=0;entryX=0;entryY=0.5;entryDx=0;entryDy=0;" edge="1" parent="1" source="J23fnJiVZXDmJQaBqTvZ-50" target="J23fnJiVZXDmJQaBqTvZ-52">
          <mxGeometry width="50" height="50" relative="1" as="geometry">
            <mxPoint x="220" y="800" as="sourcePoint" />
            <mxPoint x="270" y="750" as="targetPoint" />
          </mxGeometry>
        </mxCell>
        <mxCell id="J23fnJiVZXDmJQaBqTvZ-81" value="" style="endArrow=none;html=1;rounded=0;entryX=1;entryY=0.5;entryDx=0;entryDy=0;exitX=0;exitY=0.5;exitDx=0;exitDy=0;" edge="1" parent="1" source="J23fnJiVZXDmJQaBqTvZ-54" target="J23fnJiVZXDmJQaBqTvZ-52">
          <mxGeometry width="50" height="50" relative="1" as="geometry">
            <mxPoint x="300" y="810" as="sourcePoint" />
            <mxPoint x="350" y="760" as="targetPoint" />
          </mxGeometry>
        </mxCell>
        <mxCell id="J23fnJiVZXDmJQaBqTvZ-82" value="" style="endArrow=none;html=1;rounded=0;entryX=0.5;entryY=0;entryDx=0;entryDy=0;exitX=0.5;exitY=1;exitDx=0;exitDy=0;" edge="1" parent="1" source="J23fnJiVZXDmJQaBqTvZ-55" target="J23fnJiVZXDmJQaBqTvZ-54">
          <mxGeometry width="50" height="50" relative="1" as="geometry">
            <mxPoint x="410" y="790" as="sourcePoint" />
            <mxPoint x="460" y="740" as="targetPoint" />
          </mxGeometry>
        </mxCell>
        <mxCell id="J23fnJiVZXDmJQaBqTvZ-83" value="" style="endArrow=none;html=1;rounded=0;entryX=1;entryY=0;entryDx=0;entryDy=0;exitX=0;exitY=1;exitDx=0;exitDy=0;" edge="1" parent="1" source="J23fnJiVZXDmJQaBqTvZ-53" target="J23fnJiVZXDmJQaBqTvZ-50">
          <mxGeometry width="50" height="50" relative="1" as="geometry">
            <mxPoint x="180" y="800" as="sourcePoint" />
            <mxPoint x="230" y="750" as="targetPoint" />
          </mxGeometry>
        </mxCell>
        <mxCell id="J23fnJiVZXDmJQaBqTvZ-84" value="" style="endArrow=none;html=1;rounded=0;entryX=1;entryY=0.5;entryDx=0;entryDy=0;exitX=0;exitY=0.5;exitDx=0;exitDy=0;" edge="1" parent="1" source="J23fnJiVZXDmJQaBqTvZ-55" target="J23fnJiVZXDmJQaBqTvZ-53">
          <mxGeometry width="50" height="50" relative="1" as="geometry">
            <mxPoint x="320" y="820" as="sourcePoint" />
            <mxPoint x="370" y="770" as="targetPoint" />
          </mxGeometry>
        </mxCell>
        <mxCell id="J23fnJiVZXDmJQaBqTvZ-85" value="" style="endArrow=none;html=1;rounded=0;entryX=1;entryY=0;entryDx=0;entryDy=0;exitX=0;exitY=1;exitDx=0;exitDy=0;" edge="1" parent="1" source="J23fnJiVZXDmJQaBqTvZ-55" target="J23fnJiVZXDmJQaBqTvZ-63">
          <mxGeometry width="50" height="50" relative="1" as="geometry">
            <mxPoint x="310" y="820" as="sourcePoint" />
            <mxPoint x="360" y="770" as="targetPoint" />
          </mxGeometry>
        </mxCell>
        <mxCell id="J23fnJiVZXDmJQaBqTvZ-86" value="&lt;font style=&quot;font-size: 36px;&quot;&gt;1&lt;/font&gt;" style="text;html=1;strokeColor=none;fillColor=none;align=center;verticalAlign=middle;whiteSpace=wrap;rounded=0;" vertex="1" parent="1">
          <mxGeometry x="712.5" y="590" width="25" height="20" as="geometry" />
        </mxCell>
        <mxCell id="J23fnJiVZXDmJQaBqTvZ-87" value="" style="ellipse;whiteSpace=wrap;html=1;aspect=fixed;fillColor=#000000;" vertex="1" parent="1">
          <mxGeometry x="102.5" y="970" width="80" height="80" as="geometry" />
        </mxCell>
        <mxCell id="J23fnJiVZXDmJQaBqTvZ-88" value="" style="ellipse;whiteSpace=wrap;html=1;aspect=fixed;fillColor=#000000;" vertex="1" parent="1">
          <mxGeometry x="102.5" y="820" width="80" height="80" as="geometry" />
        </mxCell>
        <mxCell id="J23fnJiVZXDmJQaBqTvZ-89" value="" style="ellipse;whiteSpace=wrap;html=1;aspect=fixed;" vertex="1" parent="1">
          <mxGeometry x="242.5" y="970" width="80" height="80" as="geometry" />
        </mxCell>
        <mxCell id="J23fnJiVZXDmJQaBqTvZ-90" value="" style="ellipse;whiteSpace=wrap;html=1;aspect=fixed;fillColor=#B3B3B3;" vertex="1" parent="1">
          <mxGeometry x="242.5" y="820" width="80" height="80" as="geometry" />
        </mxCell>
        <mxCell id="J23fnJiVZXDmJQaBqTvZ-91" value="" style="ellipse;whiteSpace=wrap;html=1;aspect=fixed;" vertex="1" parent="1">
          <mxGeometry x="372.5" y="970" width="80" height="80" as="geometry" />
        </mxCell>
        <mxCell id="J23fnJiVZXDmJQaBqTvZ-92" value="" style="ellipse;whiteSpace=wrap;html=1;aspect=fixed;" vertex="1" parent="1">
          <mxGeometry x="372.5" y="820" width="80" height="80" as="geometry" />
        </mxCell>
        <mxCell id="J23fnJiVZXDmJQaBqTvZ-93" value="" style="ellipse;whiteSpace=wrap;html=1;aspect=fixed;" vertex="1" parent="1">
          <mxGeometry x="502.5" y="970" width="80" height="80" as="geometry" />
        </mxCell>
        <mxCell id="J23fnJiVZXDmJQaBqTvZ-94" value="" style="ellipse;whiteSpace=wrap;html=1;aspect=fixed;" vertex="1" parent="1">
          <mxGeometry x="502.5" y="820" width="80" height="80" as="geometry" />
        </mxCell>
        <mxCell id="J23fnJiVZXDmJQaBqTvZ-95" value="&lt;font style=&quot;font-size: 48px;&quot;&gt;(C)&lt;/font&gt;" style="text;html=1;strokeColor=none;fillColor=none;align=center;verticalAlign=middle;whiteSpace=wrap;rounded=0;" vertex="1" parent="1">
          <mxGeometry x="22.5" y="800" width="60" height="30" as="geometry" />
        </mxCell>
        <mxCell id="J23fnJiVZXDmJQaBqTvZ-96" value="&lt;font style=&quot;font-size: 48px;&quot;&gt;Q&lt;/font&gt;" style="text;html=1;strokeColor=none;fillColor=none;align=center;verticalAlign=middle;whiteSpace=wrap;rounded=0;" vertex="1" parent="1">
          <mxGeometry x="622.5" y="910" width="60" height="30" as="geometry" />
        </mxCell>
        <mxCell id="J23fnJiVZXDmJQaBqTvZ-99" value="" style="shape=image;html=1;verticalAlign=top;verticalLabelPosition=bottom;labelBackgroundColor=#ffffff;imageAspect=0;aspect=fixed;image=https://cdn1.iconfinder.com/data/icons/bootstrap-vol-3/16/infinity-128.png" vertex="1" parent="1">
          <mxGeometry x="382.5" y="830" width="60" height="60" as="geometry" />
        </mxCell>
        <mxCell id="J23fnJiVZXDmJQaBqTvZ-100" value="" style="shape=image;html=1;verticalAlign=top;verticalLabelPosition=bottom;labelBackgroundColor=#ffffff;imageAspect=0;aspect=fixed;image=https://cdn1.iconfinder.com/data/icons/bootstrap-vol-3/16/infinity-128.png" vertex="1" parent="1">
          <mxGeometry x="512.5" y="830" width="60" height="60" as="geometry" />
        </mxCell>
        <mxCell id="J23fnJiVZXDmJQaBqTvZ-101" value="" style="shape=image;html=1;verticalAlign=top;verticalLabelPosition=bottom;labelBackgroundColor=#ffffff;imageAspect=0;aspect=fixed;image=https://cdn1.iconfinder.com/data/icons/bootstrap-vol-3/16/infinity-128.png" vertex="1" parent="1">
          <mxGeometry x="252.5" y="980" width="60" height="60" as="geometry" />
        </mxCell>
        <mxCell id="J23fnJiVZXDmJQaBqTvZ-102" value="" style="shape=image;html=1;verticalAlign=top;verticalLabelPosition=bottom;labelBackgroundColor=#ffffff;imageAspect=0;aspect=fixed;image=https://cdn1.iconfinder.com/data/icons/bootstrap-vol-3/16/infinity-128.png" vertex="1" parent="1">
          <mxGeometry x="382.5" y="980" width="60" height="60" as="geometry" />
        </mxCell>
        <mxCell id="J23fnJiVZXDmJQaBqTvZ-103" value="" style="shape=image;html=1;verticalAlign=top;verticalLabelPosition=bottom;labelBackgroundColor=#ffffff;imageAspect=0;aspect=fixed;image=https://cdn1.iconfinder.com/data/icons/bootstrap-vol-3/16/infinity-128.png" vertex="1" parent="1">
          <mxGeometry x="512.5" y="980" width="60" height="60" as="geometry" />
        </mxCell>
        <mxCell id="J23fnJiVZXDmJQaBqTvZ-104" value="" style="whiteSpace=wrap;html=1;aspect=fixed;fillColor=#B3B3B3;" vertex="1" parent="1">
          <mxGeometry x="682.5" y="900" width="50" height="50" as="geometry" />
        </mxCell>
        <mxCell id="J23fnJiVZXDmJQaBqTvZ-105" value="&lt;span style=&quot;font-size: 24px;&quot;&gt;s&lt;/span&gt;" style="text;html=1;strokeColor=none;fillColor=none;align=center;verticalAlign=middle;whiteSpace=wrap;rounded=0;" vertex="1" parent="1">
          <mxGeometry x="677.5" y="910" width="60" height="30" as="geometry" />
        </mxCell>
        <mxCell id="J23fnJiVZXDmJQaBqTvZ-106" value="&lt;span style=&quot;font-size: 24px;&quot;&gt;v&lt;/span&gt;" style="text;html=1;strokeColor=none;fillColor=none;align=center;verticalAlign=middle;whiteSpace=wrap;rounded=0;" vertex="1" parent="1">
          <mxGeometry x="112.5" y="1060" width="60" height="30" as="geometry" />
        </mxCell>
        <mxCell id="J23fnJiVZXDmJQaBqTvZ-107" value="&lt;span style=&quot;font-size: 24px;&quot;&gt;w&lt;/span&gt;" style="text;html=1;strokeColor=none;fillColor=none;align=center;verticalAlign=middle;whiteSpace=wrap;rounded=0;" vertex="1" parent="1">
          <mxGeometry x="252.5" y="1060" width="60" height="30" as="geometry" />
        </mxCell>
        <mxCell id="J23fnJiVZXDmJQaBqTvZ-108" value="&lt;span style=&quot;font-size: 24px;&quot;&gt;x&lt;/span&gt;" style="text;html=1;strokeColor=none;fillColor=none;align=center;verticalAlign=middle;whiteSpace=wrap;rounded=0;" vertex="1" parent="1">
          <mxGeometry x="382.5" y="1060" width="60" height="30" as="geometry" />
        </mxCell>
        <mxCell id="J23fnJiVZXDmJQaBqTvZ-109" value="&lt;span style=&quot;font-size: 24px;&quot;&gt;y&lt;/span&gt;" style="text;html=1;strokeColor=none;fillColor=none;align=center;verticalAlign=middle;whiteSpace=wrap;rounded=0;" vertex="1" parent="1">
          <mxGeometry x="512.5" y="1060" width="60" height="30" as="geometry" />
        </mxCell>
        <mxCell id="J23fnJiVZXDmJQaBqTvZ-110" value="&lt;span style=&quot;font-size: 24px;&quot;&gt;r&lt;/span&gt;" style="text;html=1;strokeColor=none;fillColor=none;align=center;verticalAlign=middle;whiteSpace=wrap;rounded=0;" vertex="1" parent="1">
          <mxGeometry x="112.5" y="780" width="60" height="30" as="geometry" />
        </mxCell>
        <mxCell id="J23fnJiVZXDmJQaBqTvZ-111" value="&lt;span style=&quot;font-size: 24px;&quot;&gt;s&lt;/span&gt;" style="text;html=1;strokeColor=none;fillColor=none;align=center;verticalAlign=middle;whiteSpace=wrap;rounded=0;" vertex="1" parent="1">
          <mxGeometry x="252.5" y="780" width="60" height="30" as="geometry" />
        </mxCell>
        <mxCell id="J23fnJiVZXDmJQaBqTvZ-112" value="&lt;span style=&quot;font-size: 24px;&quot;&gt;t&lt;/span&gt;" style="text;html=1;strokeColor=none;fillColor=none;align=center;verticalAlign=middle;whiteSpace=wrap;rounded=0;" vertex="1" parent="1">
          <mxGeometry x="382.5" y="780" width="60" height="30" as="geometry" />
        </mxCell>
        <mxCell id="J23fnJiVZXDmJQaBqTvZ-113" value="&lt;span style=&quot;font-size: 24px;&quot;&gt;u&lt;/span&gt;" style="text;html=1;strokeColor=none;fillColor=none;align=center;verticalAlign=middle;whiteSpace=wrap;rounded=0;" vertex="1" parent="1">
          <mxGeometry x="512.5" y="780" width="60" height="30" as="geometry" />
        </mxCell>
        <mxCell id="J23fnJiVZXDmJQaBqTvZ-114" value="&lt;font color=&quot;#ffffff&quot; style=&quot;font-size: 36px;&quot;&gt;0&lt;/font&gt;" style="text;html=1;strokeColor=none;fillColor=none;align=center;verticalAlign=middle;whiteSpace=wrap;rounded=0;" vertex="1" parent="1">
          <mxGeometry x="112.5" y="995" width="60" height="30" as="geometry" />
        </mxCell>
        <mxCell id="J23fnJiVZXDmJQaBqTvZ-115" value="" style="endArrow=none;html=1;rounded=0;exitX=0.5;exitY=0;exitDx=0;exitDy=0;entryX=0.5;entryY=1;entryDx=0;entryDy=0;" edge="1" parent="1" source="J23fnJiVZXDmJQaBqTvZ-91" target="J23fnJiVZXDmJQaBqTvZ-92">
          <mxGeometry width="50" height="50" relative="1" as="geometry">
            <mxPoint x="402.5" y="940" as="sourcePoint" />
            <mxPoint x="452.5" y="890" as="targetPoint" />
          </mxGeometry>
        </mxCell>
        <mxCell id="J23fnJiVZXDmJQaBqTvZ-116" value="" style="endArrow=none;html=1;rounded=0;exitX=0.5;exitY=0;exitDx=0;exitDy=0;entryX=0.5;entryY=1;entryDx=0;entryDy=0;" edge="1" parent="1" source="J23fnJiVZXDmJQaBqTvZ-87" target="J23fnJiVZXDmJQaBqTvZ-88">
          <mxGeometry width="50" height="50" relative="1" as="geometry">
            <mxPoint x="32.5" y="990" as="sourcePoint" />
            <mxPoint x="82.5" y="940" as="targetPoint" />
          </mxGeometry>
        </mxCell>
        <mxCell id="J23fnJiVZXDmJQaBqTvZ-117" value="" style="endArrow=none;html=1;rounded=0;exitX=1;exitY=0.5;exitDx=0;exitDy=0;entryX=0;entryY=0.5;entryDx=0;entryDy=0;" edge="1" parent="1" source="J23fnJiVZXDmJQaBqTvZ-88" target="J23fnJiVZXDmJQaBqTvZ-90">
          <mxGeometry width="50" height="50" relative="1" as="geometry">
            <mxPoint x="52.5" y="1120" as="sourcePoint" />
            <mxPoint x="102.5" y="1070" as="targetPoint" />
          </mxGeometry>
        </mxCell>
        <mxCell id="J23fnJiVZXDmJQaBqTvZ-118" value="" style="endArrow=none;html=1;rounded=0;entryX=0.5;entryY=1;entryDx=0;entryDy=0;exitX=0.5;exitY=0;exitDx=0;exitDy=0;" edge="1" parent="1" source="J23fnJiVZXDmJQaBqTvZ-89" target="J23fnJiVZXDmJQaBqTvZ-90">
          <mxGeometry width="50" height="50" relative="1" as="geometry">
            <mxPoint x="112.5" y="1170" as="sourcePoint" />
            <mxPoint x="162.5" y="1120" as="targetPoint" />
          </mxGeometry>
        </mxCell>
        <mxCell id="J23fnJiVZXDmJQaBqTvZ-119" value="" style="endArrow=none;html=1;rounded=0;exitX=1;exitY=0.5;exitDx=0;exitDy=0;entryX=0;entryY=0.5;entryDx=0;entryDy=0;" edge="1" parent="1" source="J23fnJiVZXDmJQaBqTvZ-89" target="J23fnJiVZXDmJQaBqTvZ-91">
          <mxGeometry width="50" height="50" relative="1" as="geometry">
            <mxPoint x="202.5" y="1170" as="sourcePoint" />
            <mxPoint x="252.5" y="1120" as="targetPoint" />
          </mxGeometry>
        </mxCell>
        <mxCell id="J23fnJiVZXDmJQaBqTvZ-120" value="" style="endArrow=none;html=1;rounded=0;entryX=1;entryY=0.5;entryDx=0;entryDy=0;exitX=0;exitY=0.5;exitDx=0;exitDy=0;" edge="1" parent="1" source="J23fnJiVZXDmJQaBqTvZ-93" target="J23fnJiVZXDmJQaBqTvZ-91">
          <mxGeometry width="50" height="50" relative="1" as="geometry">
            <mxPoint x="282.5" y="1180" as="sourcePoint" />
            <mxPoint x="332.5" y="1130" as="targetPoint" />
          </mxGeometry>
        </mxCell>
        <mxCell id="J23fnJiVZXDmJQaBqTvZ-121" value="" style="endArrow=none;html=1;rounded=0;entryX=0.5;entryY=0;entryDx=0;entryDy=0;exitX=0.5;exitY=1;exitDx=0;exitDy=0;" edge="1" parent="1" source="J23fnJiVZXDmJQaBqTvZ-94" target="J23fnJiVZXDmJQaBqTvZ-93">
          <mxGeometry width="50" height="50" relative="1" as="geometry">
            <mxPoint x="392.5" y="1160" as="sourcePoint" />
            <mxPoint x="442.5" y="1110" as="targetPoint" />
          </mxGeometry>
        </mxCell>
        <mxCell id="J23fnJiVZXDmJQaBqTvZ-122" value="" style="endArrow=none;html=1;rounded=0;entryX=1;entryY=0;entryDx=0;entryDy=0;exitX=0;exitY=1;exitDx=0;exitDy=0;" edge="1" parent="1" source="J23fnJiVZXDmJQaBqTvZ-92" target="J23fnJiVZXDmJQaBqTvZ-89">
          <mxGeometry width="50" height="50" relative="1" as="geometry">
            <mxPoint x="162.5" y="1170" as="sourcePoint" />
            <mxPoint x="212.5" y="1120" as="targetPoint" />
          </mxGeometry>
        </mxCell>
        <mxCell id="J23fnJiVZXDmJQaBqTvZ-123" value="" style="endArrow=none;html=1;rounded=0;entryX=1;entryY=0.5;entryDx=0;entryDy=0;exitX=0;exitY=0.5;exitDx=0;exitDy=0;" edge="1" parent="1" source="J23fnJiVZXDmJQaBqTvZ-94" target="J23fnJiVZXDmJQaBqTvZ-92">
          <mxGeometry width="50" height="50" relative="1" as="geometry">
            <mxPoint x="302.5" y="1190" as="sourcePoint" />
            <mxPoint x="352.5" y="1140" as="targetPoint" />
          </mxGeometry>
        </mxCell>
        <mxCell id="J23fnJiVZXDmJQaBqTvZ-124" value="" style="endArrow=none;html=1;rounded=0;entryX=1;entryY=0;entryDx=0;entryDy=0;exitX=0;exitY=1;exitDx=0;exitDy=0;" edge="1" parent="1" source="J23fnJiVZXDmJQaBqTvZ-94" target="J23fnJiVZXDmJQaBqTvZ-102">
          <mxGeometry width="50" height="50" relative="1" as="geometry">
            <mxPoint x="292.5" y="1190" as="sourcePoint" />
            <mxPoint x="342.5" y="1140" as="targetPoint" />
          </mxGeometry>
        </mxCell>
        <mxCell id="J23fnJiVZXDmJQaBqTvZ-125" value="&lt;font style=&quot;font-size: 36px;&quot;&gt;2&lt;/font&gt;" style="text;html=1;strokeColor=none;fillColor=none;align=center;verticalAlign=middle;whiteSpace=wrap;rounded=0;" vertex="1" parent="1">
          <mxGeometry x="695" y="960" width="25" height="20" as="geometry" />
        </mxCell>
        <mxCell id="J23fnJiVZXDmJQaBqTvZ-224" value="&lt;span style=&quot;font-size: 24px;&quot;&gt;v&lt;/span&gt;" style="text;html=1;strokeColor=none;fillColor=none;align=center;verticalAlign=middle;whiteSpace=wrap;rounded=0;" vertex="1" parent="1">
          <mxGeometry x="125" y="1740" width="60" height="30" as="geometry" />
        </mxCell>
        <mxCell id="J23fnJiVZXDmJQaBqTvZ-225" value="&lt;span style=&quot;font-size: 24px;&quot;&gt;w&lt;/span&gt;" style="text;html=1;strokeColor=none;fillColor=none;align=center;verticalAlign=middle;whiteSpace=wrap;rounded=0;" vertex="1" parent="1">
          <mxGeometry x="265" y="1740" width="60" height="30" as="geometry" />
        </mxCell>
        <mxCell id="J23fnJiVZXDmJQaBqTvZ-226" value="&lt;span style=&quot;font-size: 24px;&quot;&gt;x&lt;/span&gt;" style="text;html=1;strokeColor=none;fillColor=none;align=center;verticalAlign=middle;whiteSpace=wrap;rounded=0;" vertex="1" parent="1">
          <mxGeometry x="395" y="1740" width="60" height="30" as="geometry" />
        </mxCell>
        <mxCell id="J23fnJiVZXDmJQaBqTvZ-227" value="&lt;span style=&quot;font-size: 24px;&quot;&gt;y&lt;/span&gt;" style="text;html=1;strokeColor=none;fillColor=none;align=center;verticalAlign=middle;whiteSpace=wrap;rounded=0;" vertex="1" parent="1">
          <mxGeometry x="525" y="1740" width="60" height="30" as="geometry" />
        </mxCell>
        <mxCell id="J23fnJiVZXDmJQaBqTvZ-439" value="&lt;font style=&quot;font-size: 36px;&quot;&gt;1&lt;/font&gt;" style="text;html=1;strokeColor=none;fillColor=none;align=center;verticalAlign=middle;whiteSpace=wrap;rounded=0;" vertex="1" parent="1">
          <mxGeometry x="127.5" y="470" width="60" height="30" as="geometry" />
        </mxCell>
        <mxCell id="J23fnJiVZXDmJQaBqTvZ-440" value="&lt;font color=&quot;#ffffff&quot; style=&quot;font-size: 36px;&quot;&gt;1&lt;/font&gt;" style="text;html=1;strokeColor=none;fillColor=none;align=center;verticalAlign=middle;whiteSpace=wrap;rounded=0;" vertex="1" parent="1">
          <mxGeometry x="112.5" y="845" width="60" height="30" as="geometry" />
        </mxCell>
        <mxCell id="J23fnJiVZXDmJQaBqTvZ-441" value="&lt;font style=&quot;font-size: 36px;&quot;&gt;2&lt;/font&gt;" style="text;html=1;strokeColor=none;fillColor=none;align=center;verticalAlign=middle;whiteSpace=wrap;rounded=0;" vertex="1" parent="1">
          <mxGeometry x="250" y="840" width="60" height="30" as="geometry" />
        </mxCell>
        <mxCell id="J23fnJiVZXDmJQaBqTvZ-482" value="" style="ellipse;whiteSpace=wrap;html=1;aspect=fixed;fillColor=#000000;" vertex="1" parent="1">
          <mxGeometry x="115" y="1330" width="80" height="80" as="geometry" />
        </mxCell>
        <mxCell id="J23fnJiVZXDmJQaBqTvZ-483" value="" style="ellipse;whiteSpace=wrap;html=1;aspect=fixed;fillColor=#000000;" vertex="1" parent="1">
          <mxGeometry x="115" y="1180" width="80" height="80" as="geometry" />
        </mxCell>
        <mxCell id="J23fnJiVZXDmJQaBqTvZ-484" value="" style="ellipse;whiteSpace=wrap;html=1;aspect=fixed;fillColor=#B3B3B3;" vertex="1" parent="1">
          <mxGeometry x="255" y="1330" width="80" height="80" as="geometry" />
        </mxCell>
        <mxCell id="J23fnJiVZXDmJQaBqTvZ-485" value="" style="ellipse;whiteSpace=wrap;html=1;aspect=fixed;fillColor=#000000;" vertex="1" parent="1">
          <mxGeometry x="255" y="1180" width="80" height="80" as="geometry" />
        </mxCell>
        <mxCell id="J23fnJiVZXDmJQaBqTvZ-486" value="" style="ellipse;whiteSpace=wrap;html=1;aspect=fixed;" vertex="1" parent="1">
          <mxGeometry x="385" y="1330" width="80" height="80" as="geometry" />
        </mxCell>
        <mxCell id="J23fnJiVZXDmJQaBqTvZ-487" value="" style="ellipse;whiteSpace=wrap;html=1;aspect=fixed;" vertex="1" parent="1">
          <mxGeometry x="385" y="1180" width="80" height="80" as="geometry" />
        </mxCell>
        <mxCell id="J23fnJiVZXDmJQaBqTvZ-488" value="" style="ellipse;whiteSpace=wrap;html=1;aspect=fixed;" vertex="1" parent="1">
          <mxGeometry x="515" y="1330" width="80" height="80" as="geometry" />
        </mxCell>
        <mxCell id="J23fnJiVZXDmJQaBqTvZ-489" value="" style="ellipse;whiteSpace=wrap;html=1;aspect=fixed;" vertex="1" parent="1">
          <mxGeometry x="515" y="1180" width="80" height="80" as="geometry" />
        </mxCell>
        <mxCell id="J23fnJiVZXDmJQaBqTvZ-490" value="&lt;font style=&quot;font-size: 48px;&quot;&gt;(D)&lt;/font&gt;" style="text;html=1;strokeColor=none;fillColor=none;align=center;verticalAlign=middle;whiteSpace=wrap;rounded=0;" vertex="1" parent="1">
          <mxGeometry x="35" y="1160" width="60" height="30" as="geometry" />
        </mxCell>
        <mxCell id="J23fnJiVZXDmJQaBqTvZ-491" value="&lt;font style=&quot;font-size: 48px;&quot;&gt;Q&lt;/font&gt;" style="text;html=1;strokeColor=none;fillColor=none;align=center;verticalAlign=middle;whiteSpace=wrap;rounded=0;" vertex="1" parent="1">
          <mxGeometry x="635" y="1270" width="60" height="30" as="geometry" />
        </mxCell>
        <mxCell id="J23fnJiVZXDmJQaBqTvZ-492" value="" style="shape=image;html=1;verticalAlign=top;verticalLabelPosition=bottom;labelBackgroundColor=#ffffff;imageAspect=0;aspect=fixed;image=https://cdn1.iconfinder.com/data/icons/bootstrap-vol-3/16/infinity-128.png" vertex="1" parent="1">
          <mxGeometry x="395" y="1190" width="60" height="60" as="geometry" />
        </mxCell>
        <mxCell id="J23fnJiVZXDmJQaBqTvZ-493" value="" style="shape=image;html=1;verticalAlign=top;verticalLabelPosition=bottom;labelBackgroundColor=#ffffff;imageAspect=0;aspect=fixed;image=https://cdn1.iconfinder.com/data/icons/bootstrap-vol-3/16/infinity-128.png" vertex="1" parent="1">
          <mxGeometry x="525" y="1190" width="60" height="60" as="geometry" />
        </mxCell>
        <mxCell id="J23fnJiVZXDmJQaBqTvZ-495" value="" style="shape=image;html=1;verticalAlign=top;verticalLabelPosition=bottom;labelBackgroundColor=#ffffff;imageAspect=0;aspect=fixed;image=https://cdn1.iconfinder.com/data/icons/bootstrap-vol-3/16/infinity-128.png" vertex="1" parent="1">
          <mxGeometry x="395" y="1340" width="60" height="60" as="geometry" />
        </mxCell>
        <mxCell id="J23fnJiVZXDmJQaBqTvZ-496" value="" style="shape=image;html=1;verticalAlign=top;verticalLabelPosition=bottom;labelBackgroundColor=#ffffff;imageAspect=0;aspect=fixed;image=https://cdn1.iconfinder.com/data/icons/bootstrap-vol-3/16/infinity-128.png" vertex="1" parent="1">
          <mxGeometry x="525" y="1340" width="60" height="60" as="geometry" />
        </mxCell>
        <mxCell id="J23fnJiVZXDmJQaBqTvZ-497" value="" style="whiteSpace=wrap;html=1;aspect=fixed;fillColor=#B3B3B3;" vertex="1" parent="1">
          <mxGeometry x="695" y="1260" width="50" height="50" as="geometry" />
        </mxCell>
        <mxCell id="J23fnJiVZXDmJQaBqTvZ-498" value="&lt;span style=&quot;font-size: 24px;&quot;&gt;w&lt;/span&gt;" style="text;html=1;strokeColor=none;fillColor=none;align=center;verticalAlign=middle;whiteSpace=wrap;rounded=0;" vertex="1" parent="1">
          <mxGeometry x="690" y="1270" width="60" height="30" as="geometry" />
        </mxCell>
        <mxCell id="J23fnJiVZXDmJQaBqTvZ-499" value="&lt;span style=&quot;font-size: 24px;&quot;&gt;v&lt;/span&gt;" style="text;html=1;strokeColor=none;fillColor=none;align=center;verticalAlign=middle;whiteSpace=wrap;rounded=0;" vertex="1" parent="1">
          <mxGeometry x="125" y="1420" width="60" height="30" as="geometry" />
        </mxCell>
        <mxCell id="J23fnJiVZXDmJQaBqTvZ-500" value="&lt;span style=&quot;font-size: 24px;&quot;&gt;w&lt;/span&gt;" style="text;html=1;strokeColor=none;fillColor=none;align=center;verticalAlign=middle;whiteSpace=wrap;rounded=0;" vertex="1" parent="1">
          <mxGeometry x="265" y="1420" width="60" height="30" as="geometry" />
        </mxCell>
        <mxCell id="J23fnJiVZXDmJQaBqTvZ-501" value="&lt;span style=&quot;font-size: 24px;&quot;&gt;x&lt;/span&gt;" style="text;html=1;strokeColor=none;fillColor=none;align=center;verticalAlign=middle;whiteSpace=wrap;rounded=0;" vertex="1" parent="1">
          <mxGeometry x="395" y="1420" width="60" height="30" as="geometry" />
        </mxCell>
        <mxCell id="J23fnJiVZXDmJQaBqTvZ-502" value="&lt;span style=&quot;font-size: 24px;&quot;&gt;y&lt;/span&gt;" style="text;html=1;strokeColor=none;fillColor=none;align=center;verticalAlign=middle;whiteSpace=wrap;rounded=0;" vertex="1" parent="1">
          <mxGeometry x="525" y="1420" width="60" height="30" as="geometry" />
        </mxCell>
        <mxCell id="J23fnJiVZXDmJQaBqTvZ-503" value="&lt;span style=&quot;font-size: 24px;&quot;&gt;r&lt;/span&gt;" style="text;html=1;strokeColor=none;fillColor=none;align=center;verticalAlign=middle;whiteSpace=wrap;rounded=0;" vertex="1" parent="1">
          <mxGeometry x="125" y="1140" width="60" height="30" as="geometry" />
        </mxCell>
        <mxCell id="J23fnJiVZXDmJQaBqTvZ-504" value="&lt;span style=&quot;font-size: 24px;&quot;&gt;s&lt;/span&gt;" style="text;html=1;strokeColor=none;fillColor=none;align=center;verticalAlign=middle;whiteSpace=wrap;rounded=0;" vertex="1" parent="1">
          <mxGeometry x="265" y="1140" width="60" height="30" as="geometry" />
        </mxCell>
        <mxCell id="J23fnJiVZXDmJQaBqTvZ-505" value="&lt;span style=&quot;font-size: 24px;&quot;&gt;t&lt;/span&gt;" style="text;html=1;strokeColor=none;fillColor=none;align=center;verticalAlign=middle;whiteSpace=wrap;rounded=0;" vertex="1" parent="1">
          <mxGeometry x="395" y="1140" width="60" height="30" as="geometry" />
        </mxCell>
        <mxCell id="J23fnJiVZXDmJQaBqTvZ-506" value="&lt;span style=&quot;font-size: 24px;&quot;&gt;u&lt;/span&gt;" style="text;html=1;strokeColor=none;fillColor=none;align=center;verticalAlign=middle;whiteSpace=wrap;rounded=0;" vertex="1" parent="1">
          <mxGeometry x="525" y="1140" width="60" height="30" as="geometry" />
        </mxCell>
        <mxCell id="J23fnJiVZXDmJQaBqTvZ-507" value="&lt;font color=&quot;#ffffff&quot; style=&quot;font-size: 36px;&quot;&gt;0&lt;/font&gt;" style="text;html=1;strokeColor=none;fillColor=none;align=center;verticalAlign=middle;whiteSpace=wrap;rounded=0;" vertex="1" parent="1">
          <mxGeometry x="125" y="1355" width="60" height="30" as="geometry" />
        </mxCell>
        <mxCell id="J23fnJiVZXDmJQaBqTvZ-508" value="" style="endArrow=none;html=1;rounded=0;exitX=0.5;exitY=0;exitDx=0;exitDy=0;entryX=0.5;entryY=1;entryDx=0;entryDy=0;" edge="1" parent="1" source="J23fnJiVZXDmJQaBqTvZ-486" target="J23fnJiVZXDmJQaBqTvZ-487">
          <mxGeometry width="50" height="50" relative="1" as="geometry">
            <mxPoint x="415" y="1300" as="sourcePoint" />
            <mxPoint x="465" y="1250" as="targetPoint" />
          </mxGeometry>
        </mxCell>
        <mxCell id="J23fnJiVZXDmJQaBqTvZ-509" value="" style="endArrow=none;html=1;rounded=0;exitX=0.5;exitY=0;exitDx=0;exitDy=0;entryX=0.5;entryY=1;entryDx=0;entryDy=0;" edge="1" parent="1" source="J23fnJiVZXDmJQaBqTvZ-482" target="J23fnJiVZXDmJQaBqTvZ-483">
          <mxGeometry width="50" height="50" relative="1" as="geometry">
            <mxPoint x="45" y="1350" as="sourcePoint" />
            <mxPoint x="95" y="1300" as="targetPoint" />
          </mxGeometry>
        </mxCell>
        <mxCell id="J23fnJiVZXDmJQaBqTvZ-510" value="" style="endArrow=none;html=1;rounded=0;exitX=1;exitY=0.5;exitDx=0;exitDy=0;entryX=0;entryY=0.5;entryDx=0;entryDy=0;" edge="1" parent="1" source="J23fnJiVZXDmJQaBqTvZ-483" target="J23fnJiVZXDmJQaBqTvZ-485">
          <mxGeometry width="50" height="50" relative="1" as="geometry">
            <mxPoint x="65" y="1480" as="sourcePoint" />
            <mxPoint x="115" y="1430" as="targetPoint" />
          </mxGeometry>
        </mxCell>
        <mxCell id="J23fnJiVZXDmJQaBqTvZ-511" value="" style="endArrow=none;html=1;rounded=0;entryX=0.5;entryY=1;entryDx=0;entryDy=0;exitX=0.5;exitY=0;exitDx=0;exitDy=0;" edge="1" parent="1" source="J23fnJiVZXDmJQaBqTvZ-484" target="J23fnJiVZXDmJQaBqTvZ-485">
          <mxGeometry width="50" height="50" relative="1" as="geometry">
            <mxPoint x="125" y="1530" as="sourcePoint" />
            <mxPoint x="175" y="1480" as="targetPoint" />
          </mxGeometry>
        </mxCell>
        <mxCell id="J23fnJiVZXDmJQaBqTvZ-512" value="" style="endArrow=none;html=1;rounded=0;exitX=1;exitY=0.5;exitDx=0;exitDy=0;entryX=0;entryY=0.5;entryDx=0;entryDy=0;" edge="1" parent="1" source="J23fnJiVZXDmJQaBqTvZ-484" target="J23fnJiVZXDmJQaBqTvZ-486">
          <mxGeometry width="50" height="50" relative="1" as="geometry">
            <mxPoint x="215" y="1530" as="sourcePoint" />
            <mxPoint x="265" y="1480" as="targetPoint" />
          </mxGeometry>
        </mxCell>
        <mxCell id="J23fnJiVZXDmJQaBqTvZ-513" value="" style="endArrow=none;html=1;rounded=0;entryX=1;entryY=0.5;entryDx=0;entryDy=0;exitX=0;exitY=0.5;exitDx=0;exitDy=0;" edge="1" parent="1" source="J23fnJiVZXDmJQaBqTvZ-488" target="J23fnJiVZXDmJQaBqTvZ-486">
          <mxGeometry width="50" height="50" relative="1" as="geometry">
            <mxPoint x="295" y="1540" as="sourcePoint" />
            <mxPoint x="345" y="1490" as="targetPoint" />
          </mxGeometry>
        </mxCell>
        <mxCell id="J23fnJiVZXDmJQaBqTvZ-514" value="" style="endArrow=none;html=1;rounded=0;entryX=0.5;entryY=0;entryDx=0;entryDy=0;exitX=0.5;exitY=1;exitDx=0;exitDy=0;" edge="1" parent="1" source="J23fnJiVZXDmJQaBqTvZ-489" target="J23fnJiVZXDmJQaBqTvZ-488">
          <mxGeometry width="50" height="50" relative="1" as="geometry">
            <mxPoint x="405" y="1520" as="sourcePoint" />
            <mxPoint x="455" y="1470" as="targetPoint" />
          </mxGeometry>
        </mxCell>
        <mxCell id="J23fnJiVZXDmJQaBqTvZ-515" value="" style="endArrow=none;html=1;rounded=0;entryX=1;entryY=0;entryDx=0;entryDy=0;exitX=0;exitY=1;exitDx=0;exitDy=0;" edge="1" parent="1" source="J23fnJiVZXDmJQaBqTvZ-487" target="J23fnJiVZXDmJQaBqTvZ-484">
          <mxGeometry width="50" height="50" relative="1" as="geometry">
            <mxPoint x="175" y="1530" as="sourcePoint" />
            <mxPoint x="225" y="1480" as="targetPoint" />
          </mxGeometry>
        </mxCell>
        <mxCell id="J23fnJiVZXDmJQaBqTvZ-516" value="" style="endArrow=none;html=1;rounded=0;entryX=1;entryY=0.5;entryDx=0;entryDy=0;exitX=0;exitY=0.5;exitDx=0;exitDy=0;" edge="1" parent="1" source="J23fnJiVZXDmJQaBqTvZ-489" target="J23fnJiVZXDmJQaBqTvZ-487">
          <mxGeometry width="50" height="50" relative="1" as="geometry">
            <mxPoint x="315" y="1550" as="sourcePoint" />
            <mxPoint x="365" y="1500" as="targetPoint" />
          </mxGeometry>
        </mxCell>
        <mxCell id="J23fnJiVZXDmJQaBqTvZ-517" value="" style="endArrow=none;html=1;rounded=0;entryX=1;entryY=0;entryDx=0;entryDy=0;exitX=0;exitY=1;exitDx=0;exitDy=0;" edge="1" parent="1" source="J23fnJiVZXDmJQaBqTvZ-489" target="J23fnJiVZXDmJQaBqTvZ-495">
          <mxGeometry width="50" height="50" relative="1" as="geometry">
            <mxPoint x="305" y="1550" as="sourcePoint" />
            <mxPoint x="355" y="1500" as="targetPoint" />
          </mxGeometry>
        </mxCell>
        <mxCell id="J23fnJiVZXDmJQaBqTvZ-518" value="&lt;font style=&quot;font-size: 36px;&quot;&gt;3&lt;br&gt;&lt;br&gt;&lt;/font&gt;" style="text;html=1;strokeColor=none;fillColor=none;align=center;verticalAlign=middle;whiteSpace=wrap;rounded=0;" vertex="1" parent="1">
          <mxGeometry x="707.5" y="1350" width="25" height="20" as="geometry" />
        </mxCell>
        <mxCell id="J23fnJiVZXDmJQaBqTvZ-519" value="&lt;font color=&quot;#ffffff&quot; style=&quot;font-size: 36px;&quot;&gt;1&lt;/font&gt;" style="text;html=1;strokeColor=none;fillColor=none;align=center;verticalAlign=middle;whiteSpace=wrap;rounded=0;" vertex="1" parent="1">
          <mxGeometry x="125" y="1205" width="60" height="30" as="geometry" />
        </mxCell>
        <mxCell id="J23fnJiVZXDmJQaBqTvZ-520" value="&lt;font color=&quot;#ffffff&quot; style=&quot;font-size: 36px;&quot;&gt;2&lt;/font&gt;" style="text;html=1;strokeColor=none;fillColor=none;align=center;verticalAlign=middle;whiteSpace=wrap;rounded=0;" vertex="1" parent="1">
          <mxGeometry x="262.5" y="1200" width="60" height="30" as="geometry" />
        </mxCell>
        <mxCell id="J23fnJiVZXDmJQaBqTvZ-521" value="&lt;font color=&quot;#ffffff&quot;&gt;&lt;span style=&quot;font-size: 36px;&quot;&gt;3&lt;br&gt;&lt;br&gt;&lt;/span&gt;&lt;/font&gt;" style="text;html=1;strokeColor=none;fillColor=none;align=center;verticalAlign=middle;whiteSpace=wrap;rounded=0;" vertex="1" parent="1">
          <mxGeometry x="265" y="1375" width="60" height="25" as="geometry" />
        </mxCell>
        <mxCell id="J23fnJiVZXDmJQaBqTvZ-522" style="edgeStyle=orthogonalEdgeStyle;rounded=0;orthogonalLoop=1;jettySize=auto;html=1;exitX=0.5;exitY=1;exitDx=0;exitDy=0;entryX=0.75;entryY=1;entryDx=0;entryDy=0;" edge="1" parent="1" source="J23fnJiVZXDmJQaBqTvZ-518" target="J23fnJiVZXDmJQaBqTvZ-518">
          <mxGeometry relative="1" as="geometry" />
        </mxCell>
        <mxCell id="J23fnJiVZXDmJQaBqTvZ-527" value="" style="ellipse;whiteSpace=wrap;html=1;aspect=fixed;fillColor=#000000;" vertex="1" parent="1">
          <mxGeometry x="115" y="1670" width="80" height="80" as="geometry" />
        </mxCell>
        <mxCell id="J23fnJiVZXDmJQaBqTvZ-528" value="" style="ellipse;whiteSpace=wrap;html=1;aspect=fixed;fillColor=#000000;" vertex="1" parent="1">
          <mxGeometry x="115" y="1520" width="80" height="80" as="geometry" />
        </mxCell>
        <mxCell id="J23fnJiVZXDmJQaBqTvZ-529" value="" style="ellipse;whiteSpace=wrap;html=1;aspect=fixed;fillColor=#000000;" vertex="1" parent="1">
          <mxGeometry x="255" y="1670" width="80" height="80" as="geometry" />
        </mxCell>
        <mxCell id="J23fnJiVZXDmJQaBqTvZ-530" value="" style="ellipse;whiteSpace=wrap;html=1;aspect=fixed;fillColor=#000000;" vertex="1" parent="1">
          <mxGeometry x="255" y="1520" width="80" height="80" as="geometry" />
        </mxCell>
        <mxCell id="J23fnJiVZXDmJQaBqTvZ-531" value="" style="ellipse;whiteSpace=wrap;html=1;aspect=fixed;fillColor=#B3B3B3;" vertex="1" parent="1">
          <mxGeometry x="385" y="1670" width="80" height="80" as="geometry" />
        </mxCell>
        <mxCell id="J23fnJiVZXDmJQaBqTvZ-532" value="" style="ellipse;whiteSpace=wrap;html=1;aspect=fixed;fillColor=#B3B3B3;" vertex="1" parent="1">
          <mxGeometry x="385" y="1520" width="80" height="80" as="geometry" />
        </mxCell>
        <mxCell id="J23fnJiVZXDmJQaBqTvZ-533" value="" style="ellipse;whiteSpace=wrap;html=1;aspect=fixed;" vertex="1" parent="1">
          <mxGeometry x="515" y="1670" width="80" height="80" as="geometry" />
        </mxCell>
        <mxCell id="J23fnJiVZXDmJQaBqTvZ-534" value="" style="ellipse;whiteSpace=wrap;html=1;aspect=fixed;" vertex="1" parent="1">
          <mxGeometry x="515" y="1520" width="80" height="80" as="geometry" />
        </mxCell>
        <mxCell id="J23fnJiVZXDmJQaBqTvZ-535" value="&lt;font style=&quot;font-size: 48px;&quot;&gt;(E)&lt;/font&gt;" style="text;html=1;strokeColor=none;fillColor=none;align=center;verticalAlign=middle;whiteSpace=wrap;rounded=0;" vertex="1" parent="1">
          <mxGeometry x="35" y="1500" width="60" height="30" as="geometry" />
        </mxCell>
        <mxCell id="J23fnJiVZXDmJQaBqTvZ-536" value="&lt;font style=&quot;font-size: 48px;&quot;&gt;Q&lt;/font&gt;" style="text;html=1;strokeColor=none;fillColor=none;align=center;verticalAlign=middle;whiteSpace=wrap;rounded=0;" vertex="1" parent="1">
          <mxGeometry x="635" y="1610" width="60" height="30" as="geometry" />
        </mxCell>
        <mxCell id="J23fnJiVZXDmJQaBqTvZ-538" value="" style="shape=image;html=1;verticalAlign=top;verticalLabelPosition=bottom;labelBackgroundColor=#ffffff;imageAspect=0;aspect=fixed;image=https://cdn1.iconfinder.com/data/icons/bootstrap-vol-3/16/infinity-128.png" vertex="1" parent="1">
          <mxGeometry x="525" y="1530" width="60" height="60" as="geometry" />
        </mxCell>
        <mxCell id="J23fnJiVZXDmJQaBqTvZ-540" value="" style="shape=image;html=1;verticalAlign=top;verticalLabelPosition=bottom;labelBackgroundColor=#ffffff;imageAspect=0;aspect=fixed;image=https://cdn1.iconfinder.com/data/icons/bootstrap-vol-3/16/infinity-128.png" vertex="1" parent="1">
          <mxGeometry x="525" y="1680" width="60" height="60" as="geometry" />
        </mxCell>
        <mxCell id="J23fnJiVZXDmJQaBqTvZ-541" value="" style="whiteSpace=wrap;html=1;aspect=fixed;fillColor=#B3B3B3;" vertex="1" parent="1">
          <mxGeometry x="695" y="1600" width="50" height="50" as="geometry" />
        </mxCell>
        <mxCell id="J23fnJiVZXDmJQaBqTvZ-542" value="&lt;span style=&quot;font-size: 24px;&quot;&gt;x&lt;/span&gt;" style="text;html=1;strokeColor=none;fillColor=none;align=center;verticalAlign=middle;whiteSpace=wrap;rounded=0;" vertex="1" parent="1">
          <mxGeometry x="690" y="1610" width="60" height="30" as="geometry" />
        </mxCell>
        <mxCell id="J23fnJiVZXDmJQaBqTvZ-547" value="&lt;span style=&quot;font-size: 24px;&quot;&gt;r&lt;/span&gt;" style="text;html=1;strokeColor=none;fillColor=none;align=center;verticalAlign=middle;whiteSpace=wrap;rounded=0;" vertex="1" parent="1">
          <mxGeometry x="125" y="1480" width="60" height="30" as="geometry" />
        </mxCell>
        <mxCell id="J23fnJiVZXDmJQaBqTvZ-548" value="&lt;span style=&quot;font-size: 24px;&quot;&gt;s&lt;/span&gt;" style="text;html=1;strokeColor=none;fillColor=none;align=center;verticalAlign=middle;whiteSpace=wrap;rounded=0;" vertex="1" parent="1">
          <mxGeometry x="265" y="1480" width="60" height="30" as="geometry" />
        </mxCell>
        <mxCell id="J23fnJiVZXDmJQaBqTvZ-549" value="&lt;span style=&quot;font-size: 24px;&quot;&gt;t&lt;/span&gt;" style="text;html=1;strokeColor=none;fillColor=none;align=center;verticalAlign=middle;whiteSpace=wrap;rounded=0;" vertex="1" parent="1">
          <mxGeometry x="395" y="1480" width="60" height="30" as="geometry" />
        </mxCell>
        <mxCell id="J23fnJiVZXDmJQaBqTvZ-550" value="&lt;span style=&quot;font-size: 24px;&quot;&gt;u&lt;/span&gt;" style="text;html=1;strokeColor=none;fillColor=none;align=center;verticalAlign=middle;whiteSpace=wrap;rounded=0;" vertex="1" parent="1">
          <mxGeometry x="525" y="1480" width="60" height="30" as="geometry" />
        </mxCell>
        <mxCell id="J23fnJiVZXDmJQaBqTvZ-551" value="&lt;font color=&quot;#ffffff&quot; style=&quot;font-size: 36px;&quot;&gt;0&lt;/font&gt;" style="text;html=1;strokeColor=none;fillColor=none;align=center;verticalAlign=middle;whiteSpace=wrap;rounded=0;" vertex="1" parent="1">
          <mxGeometry x="125" y="1695" width="60" height="30" as="geometry" />
        </mxCell>
        <mxCell id="J23fnJiVZXDmJQaBqTvZ-552" value="" style="endArrow=none;html=1;rounded=0;exitX=0.5;exitY=0;exitDx=0;exitDy=0;entryX=0.5;entryY=1;entryDx=0;entryDy=0;" edge="1" parent="1" source="J23fnJiVZXDmJQaBqTvZ-531" target="J23fnJiVZXDmJQaBqTvZ-532">
          <mxGeometry width="50" height="50" relative="1" as="geometry">
            <mxPoint x="415" y="1640" as="sourcePoint" />
            <mxPoint x="465" y="1590" as="targetPoint" />
          </mxGeometry>
        </mxCell>
        <mxCell id="J23fnJiVZXDmJQaBqTvZ-553" value="" style="endArrow=none;html=1;rounded=0;exitX=0.5;exitY=0;exitDx=0;exitDy=0;entryX=0.5;entryY=1;entryDx=0;entryDy=0;" edge="1" parent="1" source="J23fnJiVZXDmJQaBqTvZ-527" target="J23fnJiVZXDmJQaBqTvZ-528">
          <mxGeometry width="50" height="50" relative="1" as="geometry">
            <mxPoint x="45" y="1690" as="sourcePoint" />
            <mxPoint x="95" y="1640" as="targetPoint" />
          </mxGeometry>
        </mxCell>
        <mxCell id="J23fnJiVZXDmJQaBqTvZ-554" value="" style="endArrow=none;html=1;rounded=0;exitX=1;exitY=0.5;exitDx=0;exitDy=0;entryX=0;entryY=0.5;entryDx=0;entryDy=0;" edge="1" parent="1" source="J23fnJiVZXDmJQaBqTvZ-528" target="J23fnJiVZXDmJQaBqTvZ-530">
          <mxGeometry width="50" height="50" relative="1" as="geometry">
            <mxPoint x="65" y="1820" as="sourcePoint" />
            <mxPoint x="115" y="1770" as="targetPoint" />
          </mxGeometry>
        </mxCell>
        <mxCell id="J23fnJiVZXDmJQaBqTvZ-555" value="" style="endArrow=none;html=1;rounded=0;entryX=0.5;entryY=1;entryDx=0;entryDy=0;exitX=0.5;exitY=0;exitDx=0;exitDy=0;" edge="1" parent="1" source="J23fnJiVZXDmJQaBqTvZ-529" target="J23fnJiVZXDmJQaBqTvZ-530">
          <mxGeometry width="50" height="50" relative="1" as="geometry">
            <mxPoint x="125" y="1870" as="sourcePoint" />
            <mxPoint x="175" y="1820" as="targetPoint" />
          </mxGeometry>
        </mxCell>
        <mxCell id="J23fnJiVZXDmJQaBqTvZ-556" value="" style="endArrow=none;html=1;rounded=0;exitX=1;exitY=0.5;exitDx=0;exitDy=0;entryX=0;entryY=0.5;entryDx=0;entryDy=0;" edge="1" parent="1" source="J23fnJiVZXDmJQaBqTvZ-529" target="J23fnJiVZXDmJQaBqTvZ-531">
          <mxGeometry width="50" height="50" relative="1" as="geometry">
            <mxPoint x="215" y="1870" as="sourcePoint" />
            <mxPoint x="265" y="1820" as="targetPoint" />
          </mxGeometry>
        </mxCell>
        <mxCell id="J23fnJiVZXDmJQaBqTvZ-557" value="" style="endArrow=none;html=1;rounded=0;entryX=1;entryY=0.5;entryDx=0;entryDy=0;exitX=0;exitY=0.5;exitDx=0;exitDy=0;" edge="1" parent="1" source="J23fnJiVZXDmJQaBqTvZ-533" target="J23fnJiVZXDmJQaBqTvZ-531">
          <mxGeometry width="50" height="50" relative="1" as="geometry">
            <mxPoint x="295" y="1880" as="sourcePoint" />
            <mxPoint x="345" y="1830" as="targetPoint" />
          </mxGeometry>
        </mxCell>
        <mxCell id="J23fnJiVZXDmJQaBqTvZ-558" value="" style="endArrow=none;html=1;rounded=0;entryX=0.5;entryY=0;entryDx=0;entryDy=0;exitX=0.5;exitY=1;exitDx=0;exitDy=0;" edge="1" parent="1" source="J23fnJiVZXDmJQaBqTvZ-534" target="J23fnJiVZXDmJQaBqTvZ-533">
          <mxGeometry width="50" height="50" relative="1" as="geometry">
            <mxPoint x="405" y="1860" as="sourcePoint" />
            <mxPoint x="455" y="1810" as="targetPoint" />
          </mxGeometry>
        </mxCell>
        <mxCell id="J23fnJiVZXDmJQaBqTvZ-559" value="" style="endArrow=none;html=1;rounded=0;entryX=1;entryY=0;entryDx=0;entryDy=0;exitX=0;exitY=1;exitDx=0;exitDy=0;" edge="1" parent="1" source="J23fnJiVZXDmJQaBqTvZ-532" target="J23fnJiVZXDmJQaBqTvZ-529">
          <mxGeometry width="50" height="50" relative="1" as="geometry">
            <mxPoint x="175" y="1870" as="sourcePoint" />
            <mxPoint x="225" y="1820" as="targetPoint" />
          </mxGeometry>
        </mxCell>
        <mxCell id="J23fnJiVZXDmJQaBqTvZ-560" value="" style="endArrow=none;html=1;rounded=0;entryX=1;entryY=0.5;entryDx=0;entryDy=0;exitX=0;exitY=0.5;exitDx=0;exitDy=0;" edge="1" parent="1" source="J23fnJiVZXDmJQaBqTvZ-534" target="J23fnJiVZXDmJQaBqTvZ-532">
          <mxGeometry width="50" height="50" relative="1" as="geometry">
            <mxPoint x="315" y="1890" as="sourcePoint" />
            <mxPoint x="365" y="1840" as="targetPoint" />
          </mxGeometry>
        </mxCell>
        <mxCell id="J23fnJiVZXDmJQaBqTvZ-561" value="" style="endArrow=none;html=1;rounded=0;entryX=1;entryY=0;entryDx=0;entryDy=0;exitX=0;exitY=1;exitDx=0;exitDy=0;" edge="1" parent="1" source="J23fnJiVZXDmJQaBqTvZ-534">
          <mxGeometry width="50" height="50" relative="1" as="geometry">
            <mxPoint x="305" y="1890" as="sourcePoint" />
            <mxPoint x="455" y="1680" as="targetPoint" />
          </mxGeometry>
        </mxCell>
        <mxCell id="J23fnJiVZXDmJQaBqTvZ-563" value="&lt;font color=&quot;#ffffff&quot; style=&quot;font-size: 36px;&quot;&gt;1&lt;/font&gt;" style="text;html=1;strokeColor=none;fillColor=none;align=center;verticalAlign=middle;whiteSpace=wrap;rounded=0;" vertex="1" parent="1">
          <mxGeometry x="125" y="1545" width="60" height="30" as="geometry" />
        </mxCell>
        <mxCell id="J23fnJiVZXDmJQaBqTvZ-564" value="&lt;font color=&quot;#ffffff&quot; style=&quot;font-size: 36px;&quot;&gt;2&lt;/font&gt;" style="text;html=1;strokeColor=none;fillColor=none;align=center;verticalAlign=middle;whiteSpace=wrap;rounded=0;" vertex="1" parent="1">
          <mxGeometry x="262.5" y="1540" width="60" height="30" as="geometry" />
        </mxCell>
        <mxCell id="J23fnJiVZXDmJQaBqTvZ-565" value="&lt;font color=&quot;#ffffff&quot;&gt;&lt;span style=&quot;font-size: 36px;&quot;&gt;3&lt;br&gt;&lt;br&gt;&lt;/span&gt;&lt;/font&gt;" style="text;html=1;strokeColor=none;fillColor=none;align=center;verticalAlign=middle;whiteSpace=wrap;rounded=0;" vertex="1" parent="1">
          <mxGeometry x="265" y="1715" width="60" height="25" as="geometry" />
        </mxCell>
        <mxCell id="J23fnJiVZXDmJQaBqTvZ-580" value="&lt;font color=&quot;#ffffff&quot;&gt;&lt;span style=&quot;font-size: 36px;&quot;&gt;3&lt;br&gt;&lt;br&gt;&lt;/span&gt;&lt;/font&gt;" style="text;html=1;strokeColor=none;fillColor=none;align=center;verticalAlign=middle;whiteSpace=wrap;rounded=0;" vertex="1" parent="1">
          <mxGeometry x="265" y="1715" width="60" height="25" as="geometry" />
        </mxCell>
        <mxCell id="J23fnJiVZXDmJQaBqTvZ-583" value="&lt;font color=&quot;#ffffff&quot;&gt;&lt;span style=&quot;font-size: 36px;&quot;&gt;4&lt;br&gt;&lt;br&gt;&lt;/span&gt;&lt;/font&gt;" style="text;html=1;strokeColor=none;fillColor=none;align=center;verticalAlign=middle;whiteSpace=wrap;rounded=0;" vertex="1" parent="1">
          <mxGeometry x="395" y="1565" width="60" height="25" as="geometry" />
        </mxCell>
        <mxCell id="J23fnJiVZXDmJQaBqTvZ-584" value="&lt;font color=&quot;#ffffff&quot;&gt;&lt;span style=&quot;font-size: 36px;&quot;&gt;4&lt;br&gt;&lt;br&gt;&lt;/span&gt;&lt;/font&gt;" style="text;html=1;strokeColor=none;fillColor=none;align=center;verticalAlign=middle;whiteSpace=wrap;rounded=0;" vertex="1" parent="1">
          <mxGeometry x="395" y="1715" width="60" height="25" as="geometry" />
        </mxCell>
        <mxCell id="J23fnJiVZXDmJQaBqTvZ-586" value="" style="whiteSpace=wrap;html=1;aspect=fixed;fillColor=#B3B3B3;" vertex="1" parent="1">
          <mxGeometry x="750" y="1600" width="50" height="50" as="geometry" />
        </mxCell>
        <mxCell id="J23fnJiVZXDmJQaBqTvZ-587" value="&lt;span style=&quot;font-size: 24px;&quot;&gt;t&lt;/span&gt;" style="text;html=1;strokeColor=none;fillColor=none;align=center;verticalAlign=middle;whiteSpace=wrap;rounded=0;" vertex="1" parent="1">
          <mxGeometry x="745" y="1610" width="60" height="30" as="geometry" />
        </mxCell>
        <mxCell id="J23fnJiVZXDmJQaBqTvZ-591" value="&lt;font style=&quot;font-size: 36px;&quot;&gt;4&lt;br&gt;&lt;br&gt;&lt;/font&gt;" style="text;html=1;strokeColor=none;fillColor=none;align=center;verticalAlign=middle;whiteSpace=wrap;rounded=0;" vertex="1" parent="1">
          <mxGeometry x="707.5" y="1690" width="25" height="20" as="geometry" />
        </mxCell>
        <mxCell id="J23fnJiVZXDmJQaBqTvZ-592" value="&lt;font style=&quot;font-size: 36px;&quot;&gt;4&lt;br&gt;&lt;/font&gt;" style="text;html=1;strokeColor=none;fillColor=none;align=center;verticalAlign=middle;whiteSpace=wrap;rounded=0;" vertex="1" parent="1">
          <mxGeometry x="767.5" y="1670" width="25" height="20" as="geometry" />
        </mxCell>
        <mxCell id="J23fnJiVZXDmJQaBqTvZ-594" value="&lt;span style=&quot;font-size: 24px;&quot;&gt;v&lt;/span&gt;" style="text;html=1;strokeColor=none;fillColor=none;align=center;verticalAlign=middle;whiteSpace=wrap;rounded=0;" vertex="1" parent="1">
          <mxGeometry x="112.5" y="2090" width="60" height="30" as="geometry" />
        </mxCell>
        <mxCell id="J23fnJiVZXDmJQaBqTvZ-595" value="&lt;span style=&quot;font-size: 24px;&quot;&gt;w&lt;/span&gt;" style="text;html=1;strokeColor=none;fillColor=none;align=center;verticalAlign=middle;whiteSpace=wrap;rounded=0;" vertex="1" parent="1">
          <mxGeometry x="252.5" y="2090" width="60" height="30" as="geometry" />
        </mxCell>
        <mxCell id="J23fnJiVZXDmJQaBqTvZ-596" value="&lt;span style=&quot;font-size: 24px;&quot;&gt;x&lt;/span&gt;" style="text;html=1;strokeColor=none;fillColor=none;align=center;verticalAlign=middle;whiteSpace=wrap;rounded=0;" vertex="1" parent="1">
          <mxGeometry x="382.5" y="2090" width="60" height="30" as="geometry" />
        </mxCell>
        <mxCell id="J23fnJiVZXDmJQaBqTvZ-597" value="&lt;span style=&quot;font-size: 24px;&quot;&gt;y&lt;/span&gt;" style="text;html=1;strokeColor=none;fillColor=none;align=center;verticalAlign=middle;whiteSpace=wrap;rounded=0;" vertex="1" parent="1">
          <mxGeometry x="512.5" y="2090" width="60" height="30" as="geometry" />
        </mxCell>
        <mxCell id="J23fnJiVZXDmJQaBqTvZ-598" value="" style="ellipse;whiteSpace=wrap;html=1;aspect=fixed;fillColor=#000000;" vertex="1" parent="1">
          <mxGeometry x="102.5" y="2020" width="80" height="80" as="geometry" />
        </mxCell>
        <mxCell id="J23fnJiVZXDmJQaBqTvZ-599" value="" style="ellipse;whiteSpace=wrap;html=1;aspect=fixed;fillColor=#000000;" vertex="1" parent="1">
          <mxGeometry x="102.5" y="1870" width="80" height="80" as="geometry" />
        </mxCell>
        <mxCell id="J23fnJiVZXDmJQaBqTvZ-600" value="" style="ellipse;whiteSpace=wrap;html=1;aspect=fixed;fillColor=#000000;" vertex="1" parent="1">
          <mxGeometry x="242.5" y="2020" width="80" height="80" as="geometry" />
        </mxCell>
        <mxCell id="J23fnJiVZXDmJQaBqTvZ-601" value="" style="ellipse;whiteSpace=wrap;html=1;aspect=fixed;fillColor=#000000;" vertex="1" parent="1">
          <mxGeometry x="242.5" y="1870" width="80" height="80" as="geometry" />
        </mxCell>
        <mxCell id="J23fnJiVZXDmJQaBqTvZ-602" value="" style="ellipse;whiteSpace=wrap;html=1;aspect=fixed;fillColor=#000000;" vertex="1" parent="1">
          <mxGeometry x="372.5" y="2020" width="80" height="80" as="geometry" />
        </mxCell>
        <mxCell id="J23fnJiVZXDmJQaBqTvZ-603" value="" style="ellipse;whiteSpace=wrap;html=1;aspect=fixed;fillColor=#B3B3B3;" vertex="1" parent="1">
          <mxGeometry x="372.5" y="1870" width="80" height="80" as="geometry" />
        </mxCell>
        <mxCell id="J23fnJiVZXDmJQaBqTvZ-604" value="" style="ellipse;whiteSpace=wrap;html=1;aspect=fixed;fillColor=#B3B3B3;" vertex="1" parent="1">
          <mxGeometry x="502.5" y="2020" width="80" height="80" as="geometry" />
        </mxCell>
        <mxCell id="J23fnJiVZXDmJQaBqTvZ-605" value="" style="ellipse;whiteSpace=wrap;html=1;aspect=fixed;fillColor=#B3B3B3;" vertex="1" parent="1">
          <mxGeometry x="502.5" y="1870" width="80" height="80" as="geometry" />
        </mxCell>
        <mxCell id="J23fnJiVZXDmJQaBqTvZ-606" value="&lt;font style=&quot;font-size: 48px;&quot;&gt;(F)&lt;/font&gt;" style="text;html=1;strokeColor=none;fillColor=none;align=center;verticalAlign=middle;whiteSpace=wrap;rounded=0;" vertex="1" parent="1">
          <mxGeometry x="22.5" y="1850" width="60" height="30" as="geometry" />
        </mxCell>
        <mxCell id="J23fnJiVZXDmJQaBqTvZ-607" value="&lt;font style=&quot;font-size: 48px;&quot;&gt;Q&lt;/font&gt;" style="text;html=1;strokeColor=none;fillColor=none;align=center;verticalAlign=middle;whiteSpace=wrap;rounded=0;" vertex="1" parent="1">
          <mxGeometry x="622.5" y="1960" width="60" height="30" as="geometry" />
        </mxCell>
        <mxCell id="J23fnJiVZXDmJQaBqTvZ-610" value="" style="whiteSpace=wrap;html=1;aspect=fixed;fillColor=#B3B3B3;" vertex="1" parent="1">
          <mxGeometry x="682.5" y="1950" width="50" height="50" as="geometry" />
        </mxCell>
        <mxCell id="J23fnJiVZXDmJQaBqTvZ-611" value="&lt;span style=&quot;font-size: 24px;&quot;&gt;t&lt;/span&gt;" style="text;html=1;strokeColor=none;fillColor=none;align=center;verticalAlign=middle;whiteSpace=wrap;rounded=0;" vertex="1" parent="1">
          <mxGeometry x="677.5" y="1960" width="60" height="30" as="geometry" />
        </mxCell>
        <mxCell id="J23fnJiVZXDmJQaBqTvZ-612" value="&lt;span style=&quot;font-size: 24px;&quot;&gt;r&lt;/span&gt;" style="text;html=1;strokeColor=none;fillColor=none;align=center;verticalAlign=middle;whiteSpace=wrap;rounded=0;" vertex="1" parent="1">
          <mxGeometry x="112.5" y="1830" width="60" height="30" as="geometry" />
        </mxCell>
        <mxCell id="J23fnJiVZXDmJQaBqTvZ-613" value="&lt;span style=&quot;font-size: 24px;&quot;&gt;s&lt;/span&gt;" style="text;html=1;strokeColor=none;fillColor=none;align=center;verticalAlign=middle;whiteSpace=wrap;rounded=0;" vertex="1" parent="1">
          <mxGeometry x="252.5" y="1830" width="60" height="30" as="geometry" />
        </mxCell>
        <mxCell id="J23fnJiVZXDmJQaBqTvZ-614" value="&lt;span style=&quot;font-size: 24px;&quot;&gt;t&lt;/span&gt;" style="text;html=1;strokeColor=none;fillColor=none;align=center;verticalAlign=middle;whiteSpace=wrap;rounded=0;" vertex="1" parent="1">
          <mxGeometry x="382.5" y="1830" width="60" height="30" as="geometry" />
        </mxCell>
        <mxCell id="J23fnJiVZXDmJQaBqTvZ-615" value="&lt;span style=&quot;font-size: 24px;&quot;&gt;u&lt;/span&gt;" style="text;html=1;strokeColor=none;fillColor=none;align=center;verticalAlign=middle;whiteSpace=wrap;rounded=0;" vertex="1" parent="1">
          <mxGeometry x="512.5" y="1830" width="60" height="30" as="geometry" />
        </mxCell>
        <mxCell id="J23fnJiVZXDmJQaBqTvZ-616" value="&lt;font color=&quot;#ffffff&quot; style=&quot;font-size: 36px;&quot;&gt;0&lt;/font&gt;" style="text;html=1;strokeColor=none;fillColor=none;align=center;verticalAlign=middle;whiteSpace=wrap;rounded=0;" vertex="1" parent="1">
          <mxGeometry x="112.5" y="2045" width="60" height="30" as="geometry" />
        </mxCell>
        <mxCell id="J23fnJiVZXDmJQaBqTvZ-617" value="" style="endArrow=none;html=1;rounded=0;exitX=0.5;exitY=0;exitDx=0;exitDy=0;entryX=0.5;entryY=1;entryDx=0;entryDy=0;" edge="1" parent="1" source="J23fnJiVZXDmJQaBqTvZ-602" target="J23fnJiVZXDmJQaBqTvZ-603">
          <mxGeometry width="50" height="50" relative="1" as="geometry">
            <mxPoint x="402.5" y="1990" as="sourcePoint" />
            <mxPoint x="452.5" y="1940" as="targetPoint" />
          </mxGeometry>
        </mxCell>
        <mxCell id="J23fnJiVZXDmJQaBqTvZ-618" value="" style="endArrow=none;html=1;rounded=0;exitX=0.5;exitY=0;exitDx=0;exitDy=0;entryX=0.5;entryY=1;entryDx=0;entryDy=0;" edge="1" parent="1" source="J23fnJiVZXDmJQaBqTvZ-598" target="J23fnJiVZXDmJQaBqTvZ-599">
          <mxGeometry width="50" height="50" relative="1" as="geometry">
            <mxPoint x="32.5" y="2040" as="sourcePoint" />
            <mxPoint x="82.5" y="1990" as="targetPoint" />
          </mxGeometry>
        </mxCell>
        <mxCell id="J23fnJiVZXDmJQaBqTvZ-619" value="" style="endArrow=none;html=1;rounded=0;exitX=1;exitY=0.5;exitDx=0;exitDy=0;entryX=0;entryY=0.5;entryDx=0;entryDy=0;" edge="1" parent="1" source="J23fnJiVZXDmJQaBqTvZ-599" target="J23fnJiVZXDmJQaBqTvZ-601">
          <mxGeometry width="50" height="50" relative="1" as="geometry">
            <mxPoint x="52.5" y="2170" as="sourcePoint" />
            <mxPoint x="102.5" y="2120" as="targetPoint" />
          </mxGeometry>
        </mxCell>
        <mxCell id="J23fnJiVZXDmJQaBqTvZ-620" value="" style="endArrow=none;html=1;rounded=0;entryX=0.5;entryY=1;entryDx=0;entryDy=0;exitX=0.5;exitY=0;exitDx=0;exitDy=0;" edge="1" parent="1" source="J23fnJiVZXDmJQaBqTvZ-600" target="J23fnJiVZXDmJQaBqTvZ-601">
          <mxGeometry width="50" height="50" relative="1" as="geometry">
            <mxPoint x="112.5" y="2220" as="sourcePoint" />
            <mxPoint x="162.5" y="2170" as="targetPoint" />
          </mxGeometry>
        </mxCell>
        <mxCell id="J23fnJiVZXDmJQaBqTvZ-621" value="" style="endArrow=none;html=1;rounded=0;exitX=1;exitY=0.5;exitDx=0;exitDy=0;entryX=0;entryY=0.5;entryDx=0;entryDy=0;" edge="1" parent="1" source="J23fnJiVZXDmJQaBqTvZ-600" target="J23fnJiVZXDmJQaBqTvZ-602">
          <mxGeometry width="50" height="50" relative="1" as="geometry">
            <mxPoint x="202.5" y="2220" as="sourcePoint" />
            <mxPoint x="252.5" y="2170" as="targetPoint" />
          </mxGeometry>
        </mxCell>
        <mxCell id="J23fnJiVZXDmJQaBqTvZ-622" value="" style="endArrow=none;html=1;rounded=0;entryX=1;entryY=0.5;entryDx=0;entryDy=0;exitX=0;exitY=0.5;exitDx=0;exitDy=0;" edge="1" parent="1" source="J23fnJiVZXDmJQaBqTvZ-604" target="J23fnJiVZXDmJQaBqTvZ-602">
          <mxGeometry width="50" height="50" relative="1" as="geometry">
            <mxPoint x="282.5" y="2230" as="sourcePoint" />
            <mxPoint x="332.5" y="2180" as="targetPoint" />
          </mxGeometry>
        </mxCell>
        <mxCell id="J23fnJiVZXDmJQaBqTvZ-624" value="" style="endArrow=none;html=1;rounded=0;entryX=1;entryY=0;entryDx=0;entryDy=0;exitX=0;exitY=1;exitDx=0;exitDy=0;" edge="1" parent="1" source="J23fnJiVZXDmJQaBqTvZ-603" target="J23fnJiVZXDmJQaBqTvZ-600">
          <mxGeometry width="50" height="50" relative="1" as="geometry">
            <mxPoint x="162.5" y="2220" as="sourcePoint" />
            <mxPoint x="212.5" y="2170" as="targetPoint" />
          </mxGeometry>
        </mxCell>
        <mxCell id="J23fnJiVZXDmJQaBqTvZ-625" value="" style="endArrow=none;html=1;rounded=0;entryX=1;entryY=0.5;entryDx=0;entryDy=0;exitX=0;exitY=0.5;exitDx=0;exitDy=0;" edge="1" parent="1" source="J23fnJiVZXDmJQaBqTvZ-605" target="J23fnJiVZXDmJQaBqTvZ-603">
          <mxGeometry width="50" height="50" relative="1" as="geometry">
            <mxPoint x="302.5" y="2240" as="sourcePoint" />
            <mxPoint x="352.5" y="2190" as="targetPoint" />
          </mxGeometry>
        </mxCell>
        <mxCell id="J23fnJiVZXDmJQaBqTvZ-626" value="" style="endArrow=none;html=1;rounded=0;entryX=1;entryY=0;entryDx=0;entryDy=0;exitX=0;exitY=1;exitDx=0;exitDy=0;" edge="1" parent="1" source="J23fnJiVZXDmJQaBqTvZ-605">
          <mxGeometry width="50" height="50" relative="1" as="geometry">
            <mxPoint x="292.5" y="2240" as="sourcePoint" />
            <mxPoint x="442.5" y="2030" as="targetPoint" />
          </mxGeometry>
        </mxCell>
        <mxCell id="J23fnJiVZXDmJQaBqTvZ-627" value="&lt;font color=&quot;#ffffff&quot; style=&quot;font-size: 36px;&quot;&gt;1&lt;/font&gt;" style="text;html=1;strokeColor=none;fillColor=none;align=center;verticalAlign=middle;whiteSpace=wrap;rounded=0;" vertex="1" parent="1">
          <mxGeometry x="112.5" y="1895" width="60" height="30" as="geometry" />
        </mxCell>
        <mxCell id="J23fnJiVZXDmJQaBqTvZ-628" value="&lt;font color=&quot;#ffffff&quot; style=&quot;font-size: 36px;&quot;&gt;2&lt;/font&gt;" style="text;html=1;strokeColor=none;fillColor=none;align=center;verticalAlign=middle;whiteSpace=wrap;rounded=0;" vertex="1" parent="1">
          <mxGeometry x="250" y="1890" width="60" height="30" as="geometry" />
        </mxCell>
        <mxCell id="J23fnJiVZXDmJQaBqTvZ-629" value="&lt;font color=&quot;#ffffff&quot;&gt;&lt;span style=&quot;font-size: 36px;&quot;&gt;3&lt;br&gt;&lt;br&gt;&lt;/span&gt;&lt;/font&gt;" style="text;html=1;strokeColor=none;fillColor=none;align=center;verticalAlign=middle;whiteSpace=wrap;rounded=0;" vertex="1" parent="1">
          <mxGeometry x="252.5" y="2065" width="60" height="25" as="geometry" />
        </mxCell>
        <mxCell id="J23fnJiVZXDmJQaBqTvZ-631" value="&lt;font color=&quot;#ffffff&quot;&gt;&lt;span style=&quot;font-size: 36px;&quot;&gt;3&lt;br&gt;&lt;br&gt;&lt;/span&gt;&lt;/font&gt;" style="text;html=1;strokeColor=none;fillColor=none;align=center;verticalAlign=middle;whiteSpace=wrap;rounded=0;" vertex="1" parent="1">
          <mxGeometry x="252.5" y="2065" width="60" height="25" as="geometry" />
        </mxCell>
        <mxCell id="J23fnJiVZXDmJQaBqTvZ-632" value="&lt;font color=&quot;#ffffff&quot;&gt;&lt;span style=&quot;font-size: 36px;&quot;&gt;4&lt;br&gt;&lt;br&gt;&lt;/span&gt;&lt;/font&gt;" style="text;html=1;strokeColor=none;fillColor=none;align=center;verticalAlign=middle;whiteSpace=wrap;rounded=0;" vertex="1" parent="1">
          <mxGeometry x="382.5" y="1915" width="60" height="25" as="geometry" />
        </mxCell>
        <mxCell id="J23fnJiVZXDmJQaBqTvZ-633" value="&lt;font color=&quot;#ffffff&quot;&gt;&lt;span style=&quot;font-size: 36px;&quot;&gt;4&lt;br&gt;&lt;br&gt;&lt;/span&gt;&lt;/font&gt;" style="text;html=1;strokeColor=none;fillColor=none;align=center;verticalAlign=middle;whiteSpace=wrap;rounded=0;" vertex="1" parent="1">
          <mxGeometry x="382.5" y="2065" width="60" height="25" as="geometry" />
        </mxCell>
        <mxCell id="J23fnJiVZXDmJQaBqTvZ-634" value="" style="whiteSpace=wrap;html=1;aspect=fixed;fillColor=#B3B3B3;" vertex="1" parent="1">
          <mxGeometry x="737.5" y="1950" width="50" height="50" as="geometry" />
        </mxCell>
        <mxCell id="J23fnJiVZXDmJQaBqTvZ-635" value="&lt;span style=&quot;font-size: 24px;&quot;&gt;y&lt;/span&gt;" style="text;html=1;strokeColor=none;fillColor=none;align=center;verticalAlign=middle;whiteSpace=wrap;rounded=0;" vertex="1" parent="1">
          <mxGeometry x="732.5" y="1960" width="57.5" height="30" as="geometry" />
        </mxCell>
        <mxCell id="J23fnJiVZXDmJQaBqTvZ-636" value="&lt;font style=&quot;font-size: 36px;&quot;&gt;4&lt;br&gt;&lt;br&gt;&lt;/font&gt;" style="text;html=1;strokeColor=none;fillColor=none;align=center;verticalAlign=middle;whiteSpace=wrap;rounded=0;" vertex="1" parent="1">
          <mxGeometry x="695" y="2040" width="25" height="20" as="geometry" />
        </mxCell>
        <mxCell id="J23fnJiVZXDmJQaBqTvZ-637" value="&lt;font style=&quot;font-size: 36px;&quot;&gt;5&lt;br&gt;&lt;/font&gt;" style="text;html=1;strokeColor=none;fillColor=none;align=center;verticalAlign=middle;whiteSpace=wrap;rounded=0;" vertex="1" parent="1">
          <mxGeometry x="755" y="2020" width="25" height="20" as="geometry" />
        </mxCell>
        <mxCell id="J23fnJiVZXDmJQaBqTvZ-639" value="&lt;font color=&quot;#ffffff&quot;&gt;&lt;span style=&quot;font-size: 36px;&quot;&gt;5&lt;br&gt;&lt;br&gt;&lt;/span&gt;&lt;/font&gt;" style="text;html=1;strokeColor=none;fillColor=none;align=center;verticalAlign=middle;whiteSpace=wrap;rounded=0;" vertex="1" parent="1">
          <mxGeometry x="515" y="1915" width="60" height="25" as="geometry" />
        </mxCell>
        <mxCell id="J23fnJiVZXDmJQaBqTvZ-640" value="&lt;font color=&quot;#ffffff&quot;&gt;&lt;span style=&quot;font-size: 36px;&quot;&gt;5&lt;br&gt;&lt;/span&gt;&lt;/font&gt;" style="text;html=1;strokeColor=none;fillColor=none;align=center;verticalAlign=middle;whiteSpace=wrap;rounded=0;" vertex="1" parent="1">
          <mxGeometry x="512.5" y="2050" width="60" height="22.5" as="geometry" />
        </mxCell>
        <mxCell id="J23fnJiVZXDmJQaBqTvZ-645" value="" style="endArrow=none;html=1;rounded=0;exitX=0.5;exitY=0;exitDx=0;exitDy=0;entryX=0.5;entryY=1;entryDx=0;entryDy=0;" edge="1" parent="1" source="J23fnJiVZXDmJQaBqTvZ-604" target="J23fnJiVZXDmJQaBqTvZ-605">
          <mxGeometry width="50" height="50" relative="1" as="geometry">
            <mxPoint x="540" y="1990" as="sourcePoint" />
            <mxPoint x="590" y="1940" as="targetPoint" />
          </mxGeometry>
        </mxCell>
        <mxCell id="J23fnJiVZXDmJQaBqTvZ-647" value="" style="whiteSpace=wrap;html=1;aspect=fixed;fillColor=#B3B3B3;" vertex="1" parent="1">
          <mxGeometry x="792.5" y="1950" width="50" height="50" as="geometry" />
        </mxCell>
        <mxCell id="J23fnJiVZXDmJQaBqTvZ-648" value="&lt;font style=&quot;font-size: 36px;&quot;&gt;5&lt;br&gt;&lt;/font&gt;" style="text;html=1;strokeColor=none;fillColor=none;align=center;verticalAlign=middle;whiteSpace=wrap;rounded=0;" vertex="1" parent="1">
          <mxGeometry x="805" y="2020" width="25" height="20" as="geometry" />
        </mxCell>
        <mxCell id="J23fnJiVZXDmJQaBqTvZ-649" value="&lt;span style=&quot;font-size: 24px;&quot;&gt;u&lt;/span&gt;" style="text;html=1;strokeColor=none;fillColor=none;align=center;verticalAlign=middle;whiteSpace=wrap;rounded=0;" vertex="1" parent="1">
          <mxGeometry x="787.5" y="1960" width="60" height="30" as="geometry" />
        </mxCell>
        <mxCell id="J23fnJiVZXDmJQaBqTvZ-650" value="&lt;span style=&quot;font-size: 24px;&quot;&gt;v&lt;/span&gt;" style="text;html=1;strokeColor=none;fillColor=none;align=center;verticalAlign=middle;whiteSpace=wrap;rounded=0;" vertex="1" parent="1">
          <mxGeometry x="127.5" y="2430" width="60" height="30" as="geometry" />
        </mxCell>
        <mxCell id="J23fnJiVZXDmJQaBqTvZ-651" value="&lt;span style=&quot;font-size: 24px;&quot;&gt;w&lt;/span&gt;" style="text;html=1;strokeColor=none;fillColor=none;align=center;verticalAlign=middle;whiteSpace=wrap;rounded=0;" vertex="1" parent="1">
          <mxGeometry x="267.5" y="2430" width="60" height="30" as="geometry" />
        </mxCell>
        <mxCell id="J23fnJiVZXDmJQaBqTvZ-652" value="&lt;span style=&quot;font-size: 24px;&quot;&gt;x&lt;/span&gt;" style="text;html=1;strokeColor=none;fillColor=none;align=center;verticalAlign=middle;whiteSpace=wrap;rounded=0;" vertex="1" parent="1">
          <mxGeometry x="397.5" y="2430" width="60" height="30" as="geometry" />
        </mxCell>
        <mxCell id="J23fnJiVZXDmJQaBqTvZ-653" value="&lt;span style=&quot;font-size: 24px;&quot;&gt;y&lt;/span&gt;" style="text;html=1;strokeColor=none;fillColor=none;align=center;verticalAlign=middle;whiteSpace=wrap;rounded=0;" vertex="1" parent="1">
          <mxGeometry x="527.5" y="2430" width="60" height="30" as="geometry" />
        </mxCell>
        <mxCell id="J23fnJiVZXDmJQaBqTvZ-654" value="" style="ellipse;whiteSpace=wrap;html=1;aspect=fixed;fillColor=#000000;" vertex="1" parent="1">
          <mxGeometry x="117.5" y="2360" width="80" height="80" as="geometry" />
        </mxCell>
        <mxCell id="J23fnJiVZXDmJQaBqTvZ-655" value="" style="ellipse;whiteSpace=wrap;html=1;aspect=fixed;fillColor=#000000;" vertex="1" parent="1">
          <mxGeometry x="117.5" y="2210" width="80" height="80" as="geometry" />
        </mxCell>
        <mxCell id="J23fnJiVZXDmJQaBqTvZ-656" value="" style="ellipse;whiteSpace=wrap;html=1;aspect=fixed;fillColor=#000000;" vertex="1" parent="1">
          <mxGeometry x="257.5" y="2360" width="80" height="80" as="geometry" />
        </mxCell>
        <mxCell id="J23fnJiVZXDmJQaBqTvZ-657" value="" style="ellipse;whiteSpace=wrap;html=1;aspect=fixed;fillColor=#000000;" vertex="1" parent="1">
          <mxGeometry x="257.5" y="2210" width="80" height="80" as="geometry" />
        </mxCell>
        <mxCell id="J23fnJiVZXDmJQaBqTvZ-658" value="" style="ellipse;whiteSpace=wrap;html=1;aspect=fixed;fillColor=#000000;" vertex="1" parent="1">
          <mxGeometry x="387.5" y="2360" width="80" height="80" as="geometry" />
        </mxCell>
        <mxCell id="J23fnJiVZXDmJQaBqTvZ-659" value="" style="ellipse;whiteSpace=wrap;html=1;aspect=fixed;fillColor=#000000;" vertex="1" parent="1">
          <mxGeometry x="387.5" y="2210" width="80" height="80" as="geometry" />
        </mxCell>
        <mxCell id="J23fnJiVZXDmJQaBqTvZ-660" value="" style="ellipse;whiteSpace=wrap;html=1;aspect=fixed;fillColor=#B3B3B3;" vertex="1" parent="1">
          <mxGeometry x="517.5" y="2360" width="80" height="80" as="geometry" />
        </mxCell>
        <mxCell id="J23fnJiVZXDmJQaBqTvZ-661" value="" style="ellipse;whiteSpace=wrap;html=1;aspect=fixed;fillColor=#B3B3B3;" vertex="1" parent="1">
          <mxGeometry x="517.5" y="2210" width="80" height="80" as="geometry" />
        </mxCell>
        <mxCell id="J23fnJiVZXDmJQaBqTvZ-662" value="&lt;font style=&quot;font-size: 48px;&quot;&gt;(G)&lt;/font&gt;" style="text;html=1;strokeColor=none;fillColor=none;align=center;verticalAlign=middle;whiteSpace=wrap;rounded=0;" vertex="1" parent="1">
          <mxGeometry x="37.5" y="2190" width="60" height="30" as="geometry" />
        </mxCell>
        <mxCell id="J23fnJiVZXDmJQaBqTvZ-663" value="&lt;font style=&quot;font-size: 48px;&quot;&gt;Q&lt;/font&gt;" style="text;html=1;strokeColor=none;fillColor=none;align=center;verticalAlign=middle;whiteSpace=wrap;rounded=0;" vertex="1" parent="1">
          <mxGeometry x="637.5" y="2300" width="60" height="30" as="geometry" />
        </mxCell>
        <mxCell id="J23fnJiVZXDmJQaBqTvZ-664" value="" style="whiteSpace=wrap;html=1;aspect=fixed;fillColor=#B3B3B3;" vertex="1" parent="1">
          <mxGeometry x="697.5" y="2290" width="50" height="50" as="geometry" />
        </mxCell>
        <mxCell id="J23fnJiVZXDmJQaBqTvZ-665" value="&lt;span style=&quot;font-size: 24px;&quot;&gt;y&lt;/span&gt;" style="text;html=1;strokeColor=none;fillColor=none;align=center;verticalAlign=middle;whiteSpace=wrap;rounded=0;" vertex="1" parent="1">
          <mxGeometry x="692.5" y="2300" width="60" height="30" as="geometry" />
        </mxCell>
        <mxCell id="J23fnJiVZXDmJQaBqTvZ-666" value="&lt;span style=&quot;font-size: 24px;&quot;&gt;r&lt;/span&gt;" style="text;html=1;strokeColor=none;fillColor=none;align=center;verticalAlign=middle;whiteSpace=wrap;rounded=0;" vertex="1" parent="1">
          <mxGeometry x="127.5" y="2170" width="60" height="30" as="geometry" />
        </mxCell>
        <mxCell id="J23fnJiVZXDmJQaBqTvZ-667" value="&lt;span style=&quot;font-size: 24px;&quot;&gt;s&lt;/span&gt;" style="text;html=1;strokeColor=none;fillColor=none;align=center;verticalAlign=middle;whiteSpace=wrap;rounded=0;" vertex="1" parent="1">
          <mxGeometry x="267.5" y="2170" width="60" height="30" as="geometry" />
        </mxCell>
        <mxCell id="J23fnJiVZXDmJQaBqTvZ-668" value="&lt;span style=&quot;font-size: 24px;&quot;&gt;t&lt;/span&gt;" style="text;html=1;strokeColor=none;fillColor=none;align=center;verticalAlign=middle;whiteSpace=wrap;rounded=0;" vertex="1" parent="1">
          <mxGeometry x="397.5" y="2170" width="60" height="30" as="geometry" />
        </mxCell>
        <mxCell id="J23fnJiVZXDmJQaBqTvZ-669" value="&lt;span style=&quot;font-size: 24px;&quot;&gt;u&lt;/span&gt;" style="text;html=1;strokeColor=none;fillColor=none;align=center;verticalAlign=middle;whiteSpace=wrap;rounded=0;" vertex="1" parent="1">
          <mxGeometry x="527.5" y="2170" width="60" height="30" as="geometry" />
        </mxCell>
        <mxCell id="J23fnJiVZXDmJQaBqTvZ-670" value="&lt;font color=&quot;#ffffff&quot; style=&quot;font-size: 36px;&quot;&gt;0&lt;/font&gt;" style="text;html=1;strokeColor=none;fillColor=none;align=center;verticalAlign=middle;whiteSpace=wrap;rounded=0;" vertex="1" parent="1">
          <mxGeometry x="127.5" y="2385" width="60" height="30" as="geometry" />
        </mxCell>
        <mxCell id="J23fnJiVZXDmJQaBqTvZ-671" value="" style="endArrow=none;html=1;rounded=0;exitX=0.5;exitY=0;exitDx=0;exitDy=0;entryX=0.5;entryY=1;entryDx=0;entryDy=0;" edge="1" parent="1" source="J23fnJiVZXDmJQaBqTvZ-658" target="J23fnJiVZXDmJQaBqTvZ-659">
          <mxGeometry width="50" height="50" relative="1" as="geometry">
            <mxPoint x="417.5" y="2330" as="sourcePoint" />
            <mxPoint x="467.5" y="2280" as="targetPoint" />
          </mxGeometry>
        </mxCell>
        <mxCell id="J23fnJiVZXDmJQaBqTvZ-672" value="" style="endArrow=none;html=1;rounded=0;exitX=0.5;exitY=0;exitDx=0;exitDy=0;entryX=0.5;entryY=1;entryDx=0;entryDy=0;" edge="1" parent="1" source="J23fnJiVZXDmJQaBqTvZ-654" target="J23fnJiVZXDmJQaBqTvZ-655">
          <mxGeometry width="50" height="50" relative="1" as="geometry">
            <mxPoint x="47.5" y="2380" as="sourcePoint" />
            <mxPoint x="97.5" y="2330" as="targetPoint" />
          </mxGeometry>
        </mxCell>
        <mxCell id="J23fnJiVZXDmJQaBqTvZ-673" value="" style="endArrow=none;html=1;rounded=0;exitX=1;exitY=0.5;exitDx=0;exitDy=0;entryX=0;entryY=0.5;entryDx=0;entryDy=0;" edge="1" parent="1" source="J23fnJiVZXDmJQaBqTvZ-655" target="J23fnJiVZXDmJQaBqTvZ-657">
          <mxGeometry width="50" height="50" relative="1" as="geometry">
            <mxPoint x="67.5" y="2510" as="sourcePoint" />
            <mxPoint x="117.5" y="2460" as="targetPoint" />
          </mxGeometry>
        </mxCell>
        <mxCell id="J23fnJiVZXDmJQaBqTvZ-674" value="" style="endArrow=none;html=1;rounded=0;entryX=0.5;entryY=1;entryDx=0;entryDy=0;exitX=0.5;exitY=0;exitDx=0;exitDy=0;" edge="1" parent="1" source="J23fnJiVZXDmJQaBqTvZ-656" target="J23fnJiVZXDmJQaBqTvZ-657">
          <mxGeometry width="50" height="50" relative="1" as="geometry">
            <mxPoint x="127.5" y="2560" as="sourcePoint" />
            <mxPoint x="177.5" y="2510" as="targetPoint" />
          </mxGeometry>
        </mxCell>
        <mxCell id="J23fnJiVZXDmJQaBqTvZ-675" value="" style="endArrow=none;html=1;rounded=0;exitX=1;exitY=0.5;exitDx=0;exitDy=0;entryX=0;entryY=0.5;entryDx=0;entryDy=0;" edge="1" parent="1" source="J23fnJiVZXDmJQaBqTvZ-656" target="J23fnJiVZXDmJQaBqTvZ-658">
          <mxGeometry width="50" height="50" relative="1" as="geometry">
            <mxPoint x="217.5" y="2560" as="sourcePoint" />
            <mxPoint x="267.5" y="2510" as="targetPoint" />
          </mxGeometry>
        </mxCell>
        <mxCell id="J23fnJiVZXDmJQaBqTvZ-676" value="" style="endArrow=none;html=1;rounded=0;entryX=1;entryY=0.5;entryDx=0;entryDy=0;exitX=0;exitY=0.5;exitDx=0;exitDy=0;" edge="1" parent="1" source="J23fnJiVZXDmJQaBqTvZ-660" target="J23fnJiVZXDmJQaBqTvZ-658">
          <mxGeometry width="50" height="50" relative="1" as="geometry">
            <mxPoint x="297.5" y="2570" as="sourcePoint" />
            <mxPoint x="347.5" y="2520" as="targetPoint" />
          </mxGeometry>
        </mxCell>
        <mxCell id="J23fnJiVZXDmJQaBqTvZ-677" value="" style="endArrow=none;html=1;rounded=0;entryX=1;entryY=0;entryDx=0;entryDy=0;exitX=0;exitY=1;exitDx=0;exitDy=0;" edge="1" parent="1" source="J23fnJiVZXDmJQaBqTvZ-659" target="J23fnJiVZXDmJQaBqTvZ-656">
          <mxGeometry width="50" height="50" relative="1" as="geometry">
            <mxPoint x="177.5" y="2560" as="sourcePoint" />
            <mxPoint x="227.5" y="2510" as="targetPoint" />
          </mxGeometry>
        </mxCell>
        <mxCell id="J23fnJiVZXDmJQaBqTvZ-678" value="" style="endArrow=none;html=1;rounded=0;entryX=1;entryY=0.5;entryDx=0;entryDy=0;exitX=0;exitY=0.5;exitDx=0;exitDy=0;" edge="1" parent="1" source="J23fnJiVZXDmJQaBqTvZ-661" target="J23fnJiVZXDmJQaBqTvZ-659">
          <mxGeometry width="50" height="50" relative="1" as="geometry">
            <mxPoint x="317.5" y="2580" as="sourcePoint" />
            <mxPoint x="367.5" y="2530" as="targetPoint" />
          </mxGeometry>
        </mxCell>
        <mxCell id="J23fnJiVZXDmJQaBqTvZ-679" value="" style="endArrow=none;html=1;rounded=0;entryX=1;entryY=0;entryDx=0;entryDy=0;exitX=0;exitY=1;exitDx=0;exitDy=0;" edge="1" parent="1" source="J23fnJiVZXDmJQaBqTvZ-661">
          <mxGeometry width="50" height="50" relative="1" as="geometry">
            <mxPoint x="307.5" y="2580" as="sourcePoint" />
            <mxPoint x="457.5" y="2370" as="targetPoint" />
          </mxGeometry>
        </mxCell>
        <mxCell id="J23fnJiVZXDmJQaBqTvZ-680" value="&lt;font color=&quot;#ffffff&quot; style=&quot;font-size: 36px;&quot;&gt;1&lt;/font&gt;" style="text;html=1;strokeColor=none;fillColor=none;align=center;verticalAlign=middle;whiteSpace=wrap;rounded=0;" vertex="1" parent="1">
          <mxGeometry x="127.5" y="2235" width="60" height="30" as="geometry" />
        </mxCell>
        <mxCell id="J23fnJiVZXDmJQaBqTvZ-681" value="&lt;font color=&quot;#ffffff&quot; style=&quot;font-size: 36px;&quot;&gt;2&lt;/font&gt;" style="text;html=1;strokeColor=none;fillColor=none;align=center;verticalAlign=middle;whiteSpace=wrap;rounded=0;" vertex="1" parent="1">
          <mxGeometry x="265" y="2230" width="60" height="30" as="geometry" />
        </mxCell>
        <mxCell id="J23fnJiVZXDmJQaBqTvZ-682" value="&lt;font color=&quot;#ffffff&quot;&gt;&lt;span style=&quot;font-size: 36px;&quot;&gt;3&lt;br&gt;&lt;br&gt;&lt;/span&gt;&lt;/font&gt;" style="text;html=1;strokeColor=none;fillColor=none;align=center;verticalAlign=middle;whiteSpace=wrap;rounded=0;" vertex="1" parent="1">
          <mxGeometry x="267.5" y="2405" width="60" height="25" as="geometry" />
        </mxCell>
        <mxCell id="J23fnJiVZXDmJQaBqTvZ-683" value="&lt;font color=&quot;#ffffff&quot;&gt;&lt;span style=&quot;font-size: 36px;&quot;&gt;3&lt;br&gt;&lt;br&gt;&lt;/span&gt;&lt;/font&gt;" style="text;html=1;strokeColor=none;fillColor=none;align=center;verticalAlign=middle;whiteSpace=wrap;rounded=0;" vertex="1" parent="1">
          <mxGeometry x="267.5" y="2405" width="60" height="25" as="geometry" />
        </mxCell>
        <mxCell id="J23fnJiVZXDmJQaBqTvZ-684" value="&lt;font color=&quot;#ffffff&quot;&gt;&lt;span style=&quot;font-size: 36px;&quot;&gt;4&lt;br&gt;&lt;br&gt;&lt;/span&gt;&lt;/font&gt;" style="text;html=1;strokeColor=none;fillColor=none;align=center;verticalAlign=middle;whiteSpace=wrap;rounded=0;" vertex="1" parent="1">
          <mxGeometry x="397.5" y="2255" width="60" height="25" as="geometry" />
        </mxCell>
        <mxCell id="J23fnJiVZXDmJQaBqTvZ-685" value="&lt;font color=&quot;#ffffff&quot;&gt;&lt;span style=&quot;font-size: 36px;&quot;&gt;4&lt;br&gt;&lt;br&gt;&lt;/span&gt;&lt;/font&gt;" style="text;html=1;strokeColor=none;fillColor=none;align=center;verticalAlign=middle;whiteSpace=wrap;rounded=0;" vertex="1" parent="1">
          <mxGeometry x="397.5" y="2405" width="60" height="25" as="geometry" />
        </mxCell>
        <mxCell id="J23fnJiVZXDmJQaBqTvZ-686" value="" style="whiteSpace=wrap;html=1;aspect=fixed;fillColor=#B3B3B3;" vertex="1" parent="1">
          <mxGeometry x="752.5" y="2290" width="50" height="50" as="geometry" />
        </mxCell>
        <mxCell id="J23fnJiVZXDmJQaBqTvZ-687" value="&lt;span style=&quot;font-size: 24px;&quot;&gt;u&lt;/span&gt;" style="text;html=1;strokeColor=none;fillColor=none;align=center;verticalAlign=middle;whiteSpace=wrap;rounded=0;" vertex="1" parent="1">
          <mxGeometry x="747.5" y="2300" width="57.5" height="30" as="geometry" />
        </mxCell>
        <mxCell id="J23fnJiVZXDmJQaBqTvZ-688" value="&lt;font style=&quot;font-size: 36px;&quot;&gt;5&lt;br&gt;&lt;/font&gt;" style="text;html=1;strokeColor=none;fillColor=none;align=center;verticalAlign=middle;whiteSpace=wrap;rounded=0;" vertex="1" parent="1">
          <mxGeometry x="712.5" y="2360" width="25" height="20" as="geometry" />
        </mxCell>
        <mxCell id="J23fnJiVZXDmJQaBqTvZ-689" value="&lt;font style=&quot;font-size: 36px;&quot;&gt;5&lt;br&gt;&lt;/font&gt;" style="text;html=1;strokeColor=none;fillColor=none;align=center;verticalAlign=middle;whiteSpace=wrap;rounded=0;" vertex="1" parent="1">
          <mxGeometry x="770" y="2360" width="25" height="20" as="geometry" />
        </mxCell>
        <mxCell id="J23fnJiVZXDmJQaBqTvZ-690" value="&lt;font color=&quot;#ffffff&quot;&gt;&lt;span style=&quot;font-size: 36px;&quot;&gt;5&lt;br&gt;&lt;br&gt;&lt;/span&gt;&lt;/font&gt;" style="text;html=1;strokeColor=none;fillColor=none;align=center;verticalAlign=middle;whiteSpace=wrap;rounded=0;" vertex="1" parent="1">
          <mxGeometry x="530" y="2255" width="60" height="25" as="geometry" />
        </mxCell>
        <mxCell id="J23fnJiVZXDmJQaBqTvZ-691" value="&lt;font color=&quot;#ffffff&quot;&gt;&lt;span style=&quot;font-size: 36px;&quot;&gt;5&lt;br&gt;&lt;/span&gt;&lt;/font&gt;" style="text;html=1;strokeColor=none;fillColor=none;align=center;verticalAlign=middle;whiteSpace=wrap;rounded=0;" vertex="1" parent="1">
          <mxGeometry x="527.5" y="2390" width="60" height="22.5" as="geometry" />
        </mxCell>
        <mxCell id="J23fnJiVZXDmJQaBqTvZ-692" value="" style="endArrow=none;html=1;rounded=0;exitX=0.5;exitY=0;exitDx=0;exitDy=0;entryX=0.5;entryY=1;entryDx=0;entryDy=0;" edge="1" parent="1" source="J23fnJiVZXDmJQaBqTvZ-660" target="J23fnJiVZXDmJQaBqTvZ-661">
          <mxGeometry width="50" height="50" relative="1" as="geometry">
            <mxPoint x="555" y="2330" as="sourcePoint" />
            <mxPoint x="605" y="2280" as="targetPoint" />
          </mxGeometry>
        </mxCell>
        <mxCell id="J23fnJiVZXDmJQaBqTvZ-693" value="&lt;span style=&quot;font-size: 24px;&quot;&gt;v&lt;/span&gt;" style="text;html=1;strokeColor=none;fillColor=none;align=center;verticalAlign=middle;whiteSpace=wrap;rounded=0;" vertex="1" parent="1">
          <mxGeometry x="136.25" y="2760" width="60" height="30" as="geometry" />
        </mxCell>
        <mxCell id="J23fnJiVZXDmJQaBqTvZ-694" value="&lt;span style=&quot;font-size: 24px;&quot;&gt;w&lt;/span&gt;" style="text;html=1;strokeColor=none;fillColor=none;align=center;verticalAlign=middle;whiteSpace=wrap;rounded=0;" vertex="1" parent="1">
          <mxGeometry x="276.25" y="2760" width="60" height="30" as="geometry" />
        </mxCell>
        <mxCell id="J23fnJiVZXDmJQaBqTvZ-695" value="&lt;span style=&quot;font-size: 24px;&quot;&gt;x&lt;/span&gt;" style="text;html=1;strokeColor=none;fillColor=none;align=center;verticalAlign=middle;whiteSpace=wrap;rounded=0;" vertex="1" parent="1">
          <mxGeometry x="406.25" y="2760" width="60" height="30" as="geometry" />
        </mxCell>
        <mxCell id="J23fnJiVZXDmJQaBqTvZ-696" value="&lt;span style=&quot;font-size: 24px;&quot;&gt;y&lt;/span&gt;" style="text;html=1;strokeColor=none;fillColor=none;align=center;verticalAlign=middle;whiteSpace=wrap;rounded=0;" vertex="1" parent="1">
          <mxGeometry x="536.25" y="2760" width="60" height="30" as="geometry" />
        </mxCell>
        <mxCell id="J23fnJiVZXDmJQaBqTvZ-697" value="" style="ellipse;whiteSpace=wrap;html=1;aspect=fixed;fillColor=#000000;" vertex="1" parent="1">
          <mxGeometry x="126.25" y="2690" width="80" height="80" as="geometry" />
        </mxCell>
        <mxCell id="J23fnJiVZXDmJQaBqTvZ-698" value="" style="ellipse;whiteSpace=wrap;html=1;aspect=fixed;fillColor=#000000;" vertex="1" parent="1">
          <mxGeometry x="126.25" y="2540" width="80" height="80" as="geometry" />
        </mxCell>
        <mxCell id="J23fnJiVZXDmJQaBqTvZ-699" value="" style="ellipse;whiteSpace=wrap;html=1;aspect=fixed;fillColor=#000000;" vertex="1" parent="1">
          <mxGeometry x="266.25" y="2690" width="80" height="80" as="geometry" />
        </mxCell>
        <mxCell id="J23fnJiVZXDmJQaBqTvZ-700" value="" style="ellipse;whiteSpace=wrap;html=1;aspect=fixed;fillColor=#000000;" vertex="1" parent="1">
          <mxGeometry x="266.25" y="2540" width="80" height="80" as="geometry" />
        </mxCell>
        <mxCell id="J23fnJiVZXDmJQaBqTvZ-701" value="" style="ellipse;whiteSpace=wrap;html=1;aspect=fixed;fillColor=#000000;" vertex="1" parent="1">
          <mxGeometry x="396.25" y="2690" width="80" height="80" as="geometry" />
        </mxCell>
        <mxCell id="J23fnJiVZXDmJQaBqTvZ-702" value="" style="ellipse;whiteSpace=wrap;html=1;aspect=fixed;fillColor=#000000;" vertex="1" parent="1">
          <mxGeometry x="396.25" y="2540" width="80" height="80" as="geometry" />
        </mxCell>
        <mxCell id="J23fnJiVZXDmJQaBqTvZ-703" value="" style="ellipse;whiteSpace=wrap;html=1;aspect=fixed;fillColor=#000000;" vertex="1" parent="1">
          <mxGeometry x="526.25" y="2690" width="80" height="80" as="geometry" />
        </mxCell>
        <mxCell id="J23fnJiVZXDmJQaBqTvZ-704" value="" style="ellipse;whiteSpace=wrap;html=1;aspect=fixed;fillColor=#B3B3B3;" vertex="1" parent="1">
          <mxGeometry x="526.25" y="2540" width="80" height="80" as="geometry" />
        </mxCell>
        <mxCell id="J23fnJiVZXDmJQaBqTvZ-705" value="&lt;font style=&quot;font-size: 48px;&quot;&gt;(H)&lt;/font&gt;" style="text;html=1;strokeColor=none;fillColor=none;align=center;verticalAlign=middle;whiteSpace=wrap;rounded=0;" vertex="1" parent="1">
          <mxGeometry x="46.25" y="2520" width="60" height="30" as="geometry" />
        </mxCell>
        <mxCell id="J23fnJiVZXDmJQaBqTvZ-706" value="&lt;font style=&quot;font-size: 48px;&quot;&gt;Q&lt;/font&gt;" style="text;html=1;strokeColor=none;fillColor=none;align=center;verticalAlign=middle;whiteSpace=wrap;rounded=0;" vertex="1" parent="1">
          <mxGeometry x="646.25" y="2630" width="60" height="30" as="geometry" />
        </mxCell>
        <mxCell id="J23fnJiVZXDmJQaBqTvZ-707" value="" style="whiteSpace=wrap;html=1;aspect=fixed;fillColor=#B3B3B3;" vertex="1" parent="1">
          <mxGeometry x="706.25" y="2620" width="50" height="50" as="geometry" />
        </mxCell>
        <mxCell id="J23fnJiVZXDmJQaBqTvZ-708" value="&lt;span style=&quot;font-size: 24px;&quot;&gt;u&lt;/span&gt;" style="text;html=1;strokeColor=none;fillColor=none;align=center;verticalAlign=middle;whiteSpace=wrap;rounded=0;" vertex="1" parent="1">
          <mxGeometry x="701.25" y="2630" width="60" height="30" as="geometry" />
        </mxCell>
        <mxCell id="J23fnJiVZXDmJQaBqTvZ-709" value="&lt;span style=&quot;font-size: 24px;&quot;&gt;r&lt;/span&gt;" style="text;html=1;strokeColor=none;fillColor=none;align=center;verticalAlign=middle;whiteSpace=wrap;rounded=0;" vertex="1" parent="1">
          <mxGeometry x="136.25" y="2500" width="60" height="30" as="geometry" />
        </mxCell>
        <mxCell id="J23fnJiVZXDmJQaBqTvZ-710" value="&lt;span style=&quot;font-size: 24px;&quot;&gt;s&lt;/span&gt;" style="text;html=1;strokeColor=none;fillColor=none;align=center;verticalAlign=middle;whiteSpace=wrap;rounded=0;" vertex="1" parent="1">
          <mxGeometry x="276.25" y="2500" width="60" height="30" as="geometry" />
        </mxCell>
        <mxCell id="J23fnJiVZXDmJQaBqTvZ-711" value="&lt;span style=&quot;font-size: 24px;&quot;&gt;t&lt;/span&gt;" style="text;html=1;strokeColor=none;fillColor=none;align=center;verticalAlign=middle;whiteSpace=wrap;rounded=0;" vertex="1" parent="1">
          <mxGeometry x="406.25" y="2500" width="60" height="30" as="geometry" />
        </mxCell>
        <mxCell id="J23fnJiVZXDmJQaBqTvZ-712" value="&lt;span style=&quot;font-size: 24px;&quot;&gt;u&lt;/span&gt;" style="text;html=1;strokeColor=none;fillColor=none;align=center;verticalAlign=middle;whiteSpace=wrap;rounded=0;" vertex="1" parent="1">
          <mxGeometry x="536.25" y="2500" width="60" height="30" as="geometry" />
        </mxCell>
        <mxCell id="J23fnJiVZXDmJQaBqTvZ-713" value="&lt;font color=&quot;#ffffff&quot; style=&quot;font-size: 36px;&quot;&gt;0&lt;/font&gt;" style="text;html=1;strokeColor=none;fillColor=none;align=center;verticalAlign=middle;whiteSpace=wrap;rounded=0;" vertex="1" parent="1">
          <mxGeometry x="136.25" y="2715" width="60" height="30" as="geometry" />
        </mxCell>
        <mxCell id="J23fnJiVZXDmJQaBqTvZ-714" value="" style="endArrow=none;html=1;rounded=0;exitX=0.5;exitY=0;exitDx=0;exitDy=0;entryX=0.5;entryY=1;entryDx=0;entryDy=0;" edge="1" parent="1" source="J23fnJiVZXDmJQaBqTvZ-701" target="J23fnJiVZXDmJQaBqTvZ-702">
          <mxGeometry width="50" height="50" relative="1" as="geometry">
            <mxPoint x="426.25" y="2660" as="sourcePoint" />
            <mxPoint x="476.25" y="2610" as="targetPoint" />
          </mxGeometry>
        </mxCell>
        <mxCell id="J23fnJiVZXDmJQaBqTvZ-715" value="" style="endArrow=none;html=1;rounded=0;exitX=0.5;exitY=0;exitDx=0;exitDy=0;entryX=0.5;entryY=1;entryDx=0;entryDy=0;" edge="1" parent="1" source="J23fnJiVZXDmJQaBqTvZ-697" target="J23fnJiVZXDmJQaBqTvZ-698">
          <mxGeometry width="50" height="50" relative="1" as="geometry">
            <mxPoint x="56.25" y="2710" as="sourcePoint" />
            <mxPoint x="106.25" y="2660" as="targetPoint" />
          </mxGeometry>
        </mxCell>
        <mxCell id="J23fnJiVZXDmJQaBqTvZ-716" value="" style="endArrow=none;html=1;rounded=0;exitX=1;exitY=0.5;exitDx=0;exitDy=0;entryX=0;entryY=0.5;entryDx=0;entryDy=0;" edge="1" parent="1" source="J23fnJiVZXDmJQaBqTvZ-698" target="J23fnJiVZXDmJQaBqTvZ-700">
          <mxGeometry width="50" height="50" relative="1" as="geometry">
            <mxPoint x="76.25" y="2840" as="sourcePoint" />
            <mxPoint x="126.25" y="2790" as="targetPoint" />
          </mxGeometry>
        </mxCell>
        <mxCell id="J23fnJiVZXDmJQaBqTvZ-717" value="" style="endArrow=none;html=1;rounded=0;entryX=0.5;entryY=1;entryDx=0;entryDy=0;exitX=0.5;exitY=0;exitDx=0;exitDy=0;" edge="1" parent="1" source="J23fnJiVZXDmJQaBqTvZ-699" target="J23fnJiVZXDmJQaBqTvZ-700">
          <mxGeometry width="50" height="50" relative="1" as="geometry">
            <mxPoint x="136.25" y="2890" as="sourcePoint" />
            <mxPoint x="186.25" y="2840" as="targetPoint" />
          </mxGeometry>
        </mxCell>
        <mxCell id="J23fnJiVZXDmJQaBqTvZ-718" value="" style="endArrow=none;html=1;rounded=0;exitX=1;exitY=0.5;exitDx=0;exitDy=0;entryX=0;entryY=0.5;entryDx=0;entryDy=0;" edge="1" parent="1" source="J23fnJiVZXDmJQaBqTvZ-699" target="J23fnJiVZXDmJQaBqTvZ-701">
          <mxGeometry width="50" height="50" relative="1" as="geometry">
            <mxPoint x="226.25" y="2890" as="sourcePoint" />
            <mxPoint x="276.25" y="2840" as="targetPoint" />
          </mxGeometry>
        </mxCell>
        <mxCell id="J23fnJiVZXDmJQaBqTvZ-719" value="" style="endArrow=none;html=1;rounded=0;entryX=1;entryY=0.5;entryDx=0;entryDy=0;exitX=0;exitY=0.5;exitDx=0;exitDy=0;" edge="1" parent="1" source="J23fnJiVZXDmJQaBqTvZ-703" target="J23fnJiVZXDmJQaBqTvZ-701">
          <mxGeometry width="50" height="50" relative="1" as="geometry">
            <mxPoint x="306.25" y="2900" as="sourcePoint" />
            <mxPoint x="356.25" y="2850" as="targetPoint" />
          </mxGeometry>
        </mxCell>
        <mxCell id="J23fnJiVZXDmJQaBqTvZ-720" value="" style="endArrow=none;html=1;rounded=0;entryX=1;entryY=0;entryDx=0;entryDy=0;exitX=0;exitY=1;exitDx=0;exitDy=0;" edge="1" parent="1" source="J23fnJiVZXDmJQaBqTvZ-702" target="J23fnJiVZXDmJQaBqTvZ-699">
          <mxGeometry width="50" height="50" relative="1" as="geometry">
            <mxPoint x="186.25" y="2890" as="sourcePoint" />
            <mxPoint x="236.25" y="2840" as="targetPoint" />
          </mxGeometry>
        </mxCell>
        <mxCell id="J23fnJiVZXDmJQaBqTvZ-721" value="" style="endArrow=none;html=1;rounded=0;entryX=1;entryY=0.5;entryDx=0;entryDy=0;exitX=0;exitY=0.5;exitDx=0;exitDy=0;" edge="1" parent="1" source="J23fnJiVZXDmJQaBqTvZ-704" target="J23fnJiVZXDmJQaBqTvZ-702">
          <mxGeometry width="50" height="50" relative="1" as="geometry">
            <mxPoint x="326.25" y="2910" as="sourcePoint" />
            <mxPoint x="376.25" y="2860" as="targetPoint" />
          </mxGeometry>
        </mxCell>
        <mxCell id="J23fnJiVZXDmJQaBqTvZ-722" value="" style="endArrow=none;html=1;rounded=0;entryX=1;entryY=0;entryDx=0;entryDy=0;exitX=0;exitY=1;exitDx=0;exitDy=0;" edge="1" parent="1" source="J23fnJiVZXDmJQaBqTvZ-704">
          <mxGeometry width="50" height="50" relative="1" as="geometry">
            <mxPoint x="316.25" y="2910" as="sourcePoint" />
            <mxPoint x="466.25" y="2700" as="targetPoint" />
          </mxGeometry>
        </mxCell>
        <mxCell id="J23fnJiVZXDmJQaBqTvZ-723" value="&lt;font color=&quot;#ffffff&quot; style=&quot;font-size: 36px;&quot;&gt;1&lt;/font&gt;" style="text;html=1;strokeColor=none;fillColor=none;align=center;verticalAlign=middle;whiteSpace=wrap;rounded=0;" vertex="1" parent="1">
          <mxGeometry x="136.25" y="2565" width="60" height="30" as="geometry" />
        </mxCell>
        <mxCell id="J23fnJiVZXDmJQaBqTvZ-724" value="&lt;font color=&quot;#ffffff&quot; style=&quot;font-size: 36px;&quot;&gt;2&lt;/font&gt;" style="text;html=1;strokeColor=none;fillColor=none;align=center;verticalAlign=middle;whiteSpace=wrap;rounded=0;" vertex="1" parent="1">
          <mxGeometry x="273.75" y="2560" width="60" height="30" as="geometry" />
        </mxCell>
        <mxCell id="J23fnJiVZXDmJQaBqTvZ-725" value="&lt;font color=&quot;#ffffff&quot;&gt;&lt;span style=&quot;font-size: 36px;&quot;&gt;3&lt;br&gt;&lt;br&gt;&lt;/span&gt;&lt;/font&gt;" style="text;html=1;strokeColor=none;fillColor=none;align=center;verticalAlign=middle;whiteSpace=wrap;rounded=0;" vertex="1" parent="1">
          <mxGeometry x="276.25" y="2735" width="60" height="25" as="geometry" />
        </mxCell>
        <mxCell id="J23fnJiVZXDmJQaBqTvZ-726" value="&lt;font color=&quot;#ffffff&quot;&gt;&lt;span style=&quot;font-size: 36px;&quot;&gt;3&lt;br&gt;&lt;br&gt;&lt;/span&gt;&lt;/font&gt;" style="text;html=1;strokeColor=none;fillColor=none;align=center;verticalAlign=middle;whiteSpace=wrap;rounded=0;" vertex="1" parent="1">
          <mxGeometry x="276.25" y="2735" width="60" height="25" as="geometry" />
        </mxCell>
        <mxCell id="J23fnJiVZXDmJQaBqTvZ-727" value="&lt;font color=&quot;#ffffff&quot;&gt;&lt;span style=&quot;font-size: 36px;&quot;&gt;4&lt;br&gt;&lt;br&gt;&lt;/span&gt;&lt;/font&gt;" style="text;html=1;strokeColor=none;fillColor=none;align=center;verticalAlign=middle;whiteSpace=wrap;rounded=0;" vertex="1" parent="1">
          <mxGeometry x="406.25" y="2585" width="60" height="25" as="geometry" />
        </mxCell>
        <mxCell id="J23fnJiVZXDmJQaBqTvZ-728" value="&lt;font color=&quot;#ffffff&quot;&gt;&lt;span style=&quot;font-size: 36px;&quot;&gt;4&lt;br&gt;&lt;br&gt;&lt;/span&gt;&lt;/font&gt;" style="text;html=1;strokeColor=none;fillColor=none;align=center;verticalAlign=middle;whiteSpace=wrap;rounded=0;" vertex="1" parent="1">
          <mxGeometry x="406.25" y="2735" width="60" height="25" as="geometry" />
        </mxCell>
        <mxCell id="J23fnJiVZXDmJQaBqTvZ-731" value="&lt;font style=&quot;font-size: 36px;&quot;&gt;5&lt;br&gt;&lt;/font&gt;" style="text;html=1;strokeColor=none;fillColor=none;align=center;verticalAlign=middle;whiteSpace=wrap;rounded=0;" vertex="1" parent="1">
          <mxGeometry x="718.75" y="2710" width="25" height="20" as="geometry" />
        </mxCell>
        <mxCell id="J23fnJiVZXDmJQaBqTvZ-733" value="&lt;font color=&quot;#ffffff&quot;&gt;&lt;span style=&quot;font-size: 36px;&quot;&gt;5&lt;br&gt;&lt;br&gt;&lt;/span&gt;&lt;/font&gt;" style="text;html=1;strokeColor=none;fillColor=none;align=center;verticalAlign=middle;whiteSpace=wrap;rounded=0;" vertex="1" parent="1">
          <mxGeometry x="538.75" y="2585" width="60" height="25" as="geometry" />
        </mxCell>
        <mxCell id="J23fnJiVZXDmJQaBqTvZ-734" value="&lt;font color=&quot;#ffffff&quot;&gt;&lt;span style=&quot;font-size: 36px;&quot;&gt;5&lt;br&gt;&lt;/span&gt;&lt;/font&gt;" style="text;html=1;strokeColor=none;fillColor=none;align=center;verticalAlign=middle;whiteSpace=wrap;rounded=0;" vertex="1" parent="1">
          <mxGeometry x="536.25" y="2720" width="60" height="22.5" as="geometry" />
        </mxCell>
        <mxCell id="J23fnJiVZXDmJQaBqTvZ-735" value="" style="endArrow=none;html=1;rounded=0;exitX=0.5;exitY=0;exitDx=0;exitDy=0;entryX=0.5;entryY=1;entryDx=0;entryDy=0;" edge="1" parent="1" source="J23fnJiVZXDmJQaBqTvZ-703" target="J23fnJiVZXDmJQaBqTvZ-704">
          <mxGeometry width="50" height="50" relative="1" as="geometry">
            <mxPoint x="563.75" y="2660" as="sourcePoint" />
            <mxPoint x="613.75" y="2610" as="targetPoint" />
          </mxGeometry>
        </mxCell>
        <mxCell id="J23fnJiVZXDmJQaBqTvZ-736" value="&lt;span style=&quot;font-size: 24px;&quot;&gt;v&lt;/span&gt;" style="text;html=1;strokeColor=none;fillColor=none;align=center;verticalAlign=middle;whiteSpace=wrap;rounded=0;" vertex="1" parent="1">
          <mxGeometry x="131" y="3060" width="60" height="30" as="geometry" />
        </mxCell>
        <mxCell id="J23fnJiVZXDmJQaBqTvZ-737" value="&lt;span style=&quot;font-size: 24px;&quot;&gt;w&lt;/span&gt;" style="text;html=1;strokeColor=none;fillColor=none;align=center;verticalAlign=middle;whiteSpace=wrap;rounded=0;" vertex="1" parent="1">
          <mxGeometry x="271" y="3060" width="60" height="30" as="geometry" />
        </mxCell>
        <mxCell id="J23fnJiVZXDmJQaBqTvZ-738" value="&lt;span style=&quot;font-size: 24px;&quot;&gt;x&lt;/span&gt;" style="text;html=1;strokeColor=none;fillColor=none;align=center;verticalAlign=middle;whiteSpace=wrap;rounded=0;" vertex="1" parent="1">
          <mxGeometry x="401" y="3060" width="60" height="30" as="geometry" />
        </mxCell>
        <mxCell id="J23fnJiVZXDmJQaBqTvZ-739" value="&lt;span style=&quot;font-size: 24px;&quot;&gt;y&lt;/span&gt;" style="text;html=1;strokeColor=none;fillColor=none;align=center;verticalAlign=middle;whiteSpace=wrap;rounded=0;" vertex="1" parent="1">
          <mxGeometry x="531" y="3060" width="60" height="30" as="geometry" />
        </mxCell>
        <mxCell id="J23fnJiVZXDmJQaBqTvZ-740" value="" style="ellipse;whiteSpace=wrap;html=1;aspect=fixed;fillColor=#000000;" vertex="1" parent="1">
          <mxGeometry x="121" y="2990" width="80" height="80" as="geometry" />
        </mxCell>
        <mxCell id="J23fnJiVZXDmJQaBqTvZ-741" value="" style="ellipse;whiteSpace=wrap;html=1;aspect=fixed;fillColor=#000000;" vertex="1" parent="1">
          <mxGeometry x="121" y="2840" width="80" height="80" as="geometry" />
        </mxCell>
        <mxCell id="J23fnJiVZXDmJQaBqTvZ-742" value="" style="ellipse;whiteSpace=wrap;html=1;aspect=fixed;fillColor=#000000;" vertex="1" parent="1">
          <mxGeometry x="261" y="2990" width="80" height="80" as="geometry" />
        </mxCell>
        <mxCell id="J23fnJiVZXDmJQaBqTvZ-743" value="" style="ellipse;whiteSpace=wrap;html=1;aspect=fixed;fillColor=#000000;" vertex="1" parent="1">
          <mxGeometry x="261" y="2840" width="80" height="80" as="geometry" />
        </mxCell>
        <mxCell id="J23fnJiVZXDmJQaBqTvZ-744" value="" style="ellipse;whiteSpace=wrap;html=1;aspect=fixed;fillColor=#000000;" vertex="1" parent="1">
          <mxGeometry x="391" y="2990" width="80" height="80" as="geometry" />
        </mxCell>
        <mxCell id="J23fnJiVZXDmJQaBqTvZ-745" value="" style="ellipse;whiteSpace=wrap;html=1;aspect=fixed;fillColor=#000000;" vertex="1" parent="1">
          <mxGeometry x="391" y="2840" width="80" height="80" as="geometry" />
        </mxCell>
        <mxCell id="J23fnJiVZXDmJQaBqTvZ-746" value="" style="ellipse;whiteSpace=wrap;html=1;aspect=fixed;fillColor=#000000;" vertex="1" parent="1">
          <mxGeometry x="521" y="2990" width="80" height="80" as="geometry" />
        </mxCell>
        <mxCell id="J23fnJiVZXDmJQaBqTvZ-747" value="" style="ellipse;whiteSpace=wrap;html=1;aspect=fixed;fillColor=#000000;" vertex="1" parent="1">
          <mxGeometry x="521" y="2840" width="80" height="80" as="geometry" />
        </mxCell>
        <mxCell id="J23fnJiVZXDmJQaBqTvZ-748" value="&lt;font style=&quot;font-size: 48px;&quot;&gt;(i)&lt;/font&gt;" style="text;html=1;strokeColor=none;fillColor=none;align=center;verticalAlign=middle;whiteSpace=wrap;rounded=0;" vertex="1" parent="1">
          <mxGeometry x="41" y="2820" width="60" height="30" as="geometry" />
        </mxCell>
        <mxCell id="J23fnJiVZXDmJQaBqTvZ-749" value="&lt;font style=&quot;font-size: 48px;&quot;&gt;Q&lt;/font&gt;" style="text;html=1;strokeColor=none;fillColor=none;align=center;verticalAlign=middle;whiteSpace=wrap;rounded=0;" vertex="1" parent="1">
          <mxGeometry x="641" y="2930" width="60" height="30" as="geometry" />
        </mxCell>
        <mxCell id="J23fnJiVZXDmJQaBqTvZ-750" value="" style="whiteSpace=wrap;html=1;aspect=fixed;fillColor=#B3B3B3;" vertex="1" parent="1">
          <mxGeometry x="701" y="2920" width="50" height="50" as="geometry" />
        </mxCell>
        <mxCell id="J23fnJiVZXDmJQaBqTvZ-752" value="&lt;span style=&quot;font-size: 24px;&quot;&gt;r&lt;/span&gt;" style="text;html=1;strokeColor=none;fillColor=none;align=center;verticalAlign=middle;whiteSpace=wrap;rounded=0;" vertex="1" parent="1">
          <mxGeometry x="131" y="2800" width="60" height="30" as="geometry" />
        </mxCell>
        <mxCell id="J23fnJiVZXDmJQaBqTvZ-753" value="&lt;span style=&quot;font-size: 24px;&quot;&gt;s&lt;/span&gt;" style="text;html=1;strokeColor=none;fillColor=none;align=center;verticalAlign=middle;whiteSpace=wrap;rounded=0;" vertex="1" parent="1">
          <mxGeometry x="271" y="2800" width="60" height="30" as="geometry" />
        </mxCell>
        <mxCell id="J23fnJiVZXDmJQaBqTvZ-754" value="&lt;span style=&quot;font-size: 24px;&quot;&gt;t&lt;/span&gt;" style="text;html=1;strokeColor=none;fillColor=none;align=center;verticalAlign=middle;whiteSpace=wrap;rounded=0;" vertex="1" parent="1">
          <mxGeometry x="401" y="2800" width="60" height="30" as="geometry" />
        </mxCell>
        <mxCell id="J23fnJiVZXDmJQaBqTvZ-755" value="&lt;span style=&quot;font-size: 24px;&quot;&gt;u&lt;/span&gt;" style="text;html=1;strokeColor=none;fillColor=none;align=center;verticalAlign=middle;whiteSpace=wrap;rounded=0;" vertex="1" parent="1">
          <mxGeometry x="531" y="2800" width="60" height="30" as="geometry" />
        </mxCell>
        <mxCell id="J23fnJiVZXDmJQaBqTvZ-756" value="&lt;font color=&quot;#ffffff&quot; style=&quot;font-size: 36px;&quot;&gt;0&lt;/font&gt;" style="text;html=1;strokeColor=none;fillColor=none;align=center;verticalAlign=middle;whiteSpace=wrap;rounded=0;" vertex="1" parent="1">
          <mxGeometry x="131" y="3015" width="60" height="30" as="geometry" />
        </mxCell>
        <mxCell id="J23fnJiVZXDmJQaBqTvZ-757" value="" style="endArrow=none;html=1;rounded=0;exitX=0.5;exitY=0;exitDx=0;exitDy=0;entryX=0.5;entryY=1;entryDx=0;entryDy=0;" edge="1" parent="1" source="J23fnJiVZXDmJQaBqTvZ-744" target="J23fnJiVZXDmJQaBqTvZ-745">
          <mxGeometry width="50" height="50" relative="1" as="geometry">
            <mxPoint x="421" y="2960" as="sourcePoint" />
            <mxPoint x="471" y="2910" as="targetPoint" />
          </mxGeometry>
        </mxCell>
        <mxCell id="J23fnJiVZXDmJQaBqTvZ-758" value="" style="endArrow=none;html=1;rounded=0;exitX=0.5;exitY=0;exitDx=0;exitDy=0;entryX=0.5;entryY=1;entryDx=0;entryDy=0;" edge="1" parent="1" source="J23fnJiVZXDmJQaBqTvZ-740" target="J23fnJiVZXDmJQaBqTvZ-741">
          <mxGeometry width="50" height="50" relative="1" as="geometry">
            <mxPoint x="51" y="3010" as="sourcePoint" />
            <mxPoint x="101" y="2960" as="targetPoint" />
          </mxGeometry>
        </mxCell>
        <mxCell id="J23fnJiVZXDmJQaBqTvZ-759" value="" style="endArrow=none;html=1;rounded=0;exitX=1;exitY=0.5;exitDx=0;exitDy=0;entryX=0;entryY=0.5;entryDx=0;entryDy=0;" edge="1" parent="1" source="J23fnJiVZXDmJQaBqTvZ-741" target="J23fnJiVZXDmJQaBqTvZ-743">
          <mxGeometry width="50" height="50" relative="1" as="geometry">
            <mxPoint x="71" y="3140" as="sourcePoint" />
            <mxPoint x="121" y="3090" as="targetPoint" />
          </mxGeometry>
        </mxCell>
        <mxCell id="J23fnJiVZXDmJQaBqTvZ-760" value="" style="endArrow=none;html=1;rounded=0;entryX=0.5;entryY=1;entryDx=0;entryDy=0;exitX=0.5;exitY=0;exitDx=0;exitDy=0;" edge="1" parent="1" source="J23fnJiVZXDmJQaBqTvZ-742" target="J23fnJiVZXDmJQaBqTvZ-743">
          <mxGeometry width="50" height="50" relative="1" as="geometry">
            <mxPoint x="131" y="3190" as="sourcePoint" />
            <mxPoint x="181" y="3140" as="targetPoint" />
          </mxGeometry>
        </mxCell>
        <mxCell id="J23fnJiVZXDmJQaBqTvZ-761" value="" style="endArrow=none;html=1;rounded=0;exitX=1;exitY=0.5;exitDx=0;exitDy=0;entryX=0;entryY=0.5;entryDx=0;entryDy=0;" edge="1" parent="1" source="J23fnJiVZXDmJQaBqTvZ-742" target="J23fnJiVZXDmJQaBqTvZ-744">
          <mxGeometry width="50" height="50" relative="1" as="geometry">
            <mxPoint x="221" y="3190" as="sourcePoint" />
            <mxPoint x="271" y="3140" as="targetPoint" />
          </mxGeometry>
        </mxCell>
        <mxCell id="J23fnJiVZXDmJQaBqTvZ-762" value="" style="endArrow=none;html=1;rounded=0;entryX=1;entryY=0.5;entryDx=0;entryDy=0;exitX=0;exitY=0.5;exitDx=0;exitDy=0;" edge="1" parent="1" source="J23fnJiVZXDmJQaBqTvZ-746" target="J23fnJiVZXDmJQaBqTvZ-744">
          <mxGeometry width="50" height="50" relative="1" as="geometry">
            <mxPoint x="301" y="3200" as="sourcePoint" />
            <mxPoint x="351" y="3150" as="targetPoint" />
          </mxGeometry>
        </mxCell>
        <mxCell id="J23fnJiVZXDmJQaBqTvZ-763" value="" style="endArrow=none;html=1;rounded=0;entryX=1;entryY=0;entryDx=0;entryDy=0;exitX=0;exitY=1;exitDx=0;exitDy=0;" edge="1" parent="1" source="J23fnJiVZXDmJQaBqTvZ-745" target="J23fnJiVZXDmJQaBqTvZ-742">
          <mxGeometry width="50" height="50" relative="1" as="geometry">
            <mxPoint x="181" y="3190" as="sourcePoint" />
            <mxPoint x="231" y="3140" as="targetPoint" />
          </mxGeometry>
        </mxCell>
        <mxCell id="J23fnJiVZXDmJQaBqTvZ-764" value="" style="endArrow=none;html=1;rounded=0;entryX=1;entryY=0.5;entryDx=0;entryDy=0;exitX=0;exitY=0.5;exitDx=0;exitDy=0;" edge="1" parent="1" source="J23fnJiVZXDmJQaBqTvZ-747" target="J23fnJiVZXDmJQaBqTvZ-745">
          <mxGeometry width="50" height="50" relative="1" as="geometry">
            <mxPoint x="321" y="3210" as="sourcePoint" />
            <mxPoint x="371" y="3160" as="targetPoint" />
          </mxGeometry>
        </mxCell>
        <mxCell id="J23fnJiVZXDmJQaBqTvZ-765" value="" style="endArrow=none;html=1;rounded=0;entryX=1;entryY=0;entryDx=0;entryDy=0;exitX=0;exitY=1;exitDx=0;exitDy=0;" edge="1" parent="1" source="J23fnJiVZXDmJQaBqTvZ-747">
          <mxGeometry width="50" height="50" relative="1" as="geometry">
            <mxPoint x="311" y="3210" as="sourcePoint" />
            <mxPoint x="461" y="3000" as="targetPoint" />
          </mxGeometry>
        </mxCell>
        <mxCell id="J23fnJiVZXDmJQaBqTvZ-766" value="&lt;font color=&quot;#ffffff&quot; style=&quot;font-size: 36px;&quot;&gt;1&lt;/font&gt;" style="text;html=1;strokeColor=none;fillColor=none;align=center;verticalAlign=middle;whiteSpace=wrap;rounded=0;" vertex="1" parent="1">
          <mxGeometry x="131" y="2865" width="60" height="30" as="geometry" />
        </mxCell>
        <mxCell id="J23fnJiVZXDmJQaBqTvZ-767" value="&lt;font color=&quot;#ffffff&quot; style=&quot;font-size: 36px;&quot;&gt;2&lt;/font&gt;" style="text;html=1;strokeColor=none;fillColor=none;align=center;verticalAlign=middle;whiteSpace=wrap;rounded=0;" vertex="1" parent="1">
          <mxGeometry x="268.5" y="2860" width="60" height="30" as="geometry" />
        </mxCell>
        <mxCell id="J23fnJiVZXDmJQaBqTvZ-768" value="&lt;font color=&quot;#ffffff&quot;&gt;&lt;span style=&quot;font-size: 36px;&quot;&gt;3&lt;br&gt;&lt;br&gt;&lt;/span&gt;&lt;/font&gt;" style="text;html=1;strokeColor=none;fillColor=none;align=center;verticalAlign=middle;whiteSpace=wrap;rounded=0;" vertex="1" parent="1">
          <mxGeometry x="271" y="3035" width="60" height="25" as="geometry" />
        </mxCell>
        <mxCell id="J23fnJiVZXDmJQaBqTvZ-769" value="&lt;font color=&quot;#ffffff&quot;&gt;&lt;span style=&quot;font-size: 36px;&quot;&gt;3&lt;br&gt;&lt;br&gt;&lt;/span&gt;&lt;/font&gt;" style="text;html=1;strokeColor=none;fillColor=none;align=center;verticalAlign=middle;whiteSpace=wrap;rounded=0;" vertex="1" parent="1">
          <mxGeometry x="271" y="3035" width="60" height="25" as="geometry" />
        </mxCell>
        <mxCell id="J23fnJiVZXDmJQaBqTvZ-770" value="&lt;font color=&quot;#ffffff&quot;&gt;&lt;span style=&quot;font-size: 36px;&quot;&gt;4&lt;br&gt;&lt;br&gt;&lt;/span&gt;&lt;/font&gt;" style="text;html=1;strokeColor=none;fillColor=none;align=center;verticalAlign=middle;whiteSpace=wrap;rounded=0;" vertex="1" parent="1">
          <mxGeometry x="401" y="2885" width="60" height="25" as="geometry" />
        </mxCell>
        <mxCell id="J23fnJiVZXDmJQaBqTvZ-771" value="&lt;font color=&quot;#ffffff&quot;&gt;&lt;span style=&quot;font-size: 36px;&quot;&gt;4&lt;br&gt;&lt;br&gt;&lt;/span&gt;&lt;/font&gt;" style="text;html=1;strokeColor=none;fillColor=none;align=center;verticalAlign=middle;whiteSpace=wrap;rounded=0;" vertex="1" parent="1">
          <mxGeometry x="401" y="3035" width="60" height="25" as="geometry" />
        </mxCell>
        <mxCell id="J23fnJiVZXDmJQaBqTvZ-782" value="" style="edgeStyle=orthogonalEdgeStyle;rounded=0;orthogonalLoop=1;jettySize=auto;html=1;" edge="1" parent="1" source="J23fnJiVZXDmJQaBqTvZ-776" target="J23fnJiVZXDmJQaBqTvZ-755">
          <mxGeometry relative="1" as="geometry" />
        </mxCell>
        <mxCell id="J23fnJiVZXDmJQaBqTvZ-776" value="&lt;font color=&quot;#ffffff&quot;&gt;&lt;span style=&quot;font-size: 36px;&quot;&gt;5&lt;br&gt;&lt;br&gt;&lt;/span&gt;&lt;/font&gt;" style="text;html=1;strokeColor=none;fillColor=none;align=center;verticalAlign=middle;whiteSpace=wrap;rounded=0;" vertex="1" parent="1">
          <mxGeometry x="533.5" y="2885" width="60" height="25" as="geometry" />
        </mxCell>
        <mxCell id="J23fnJiVZXDmJQaBqTvZ-777" value="&lt;font color=&quot;#ffffff&quot;&gt;&lt;span style=&quot;font-size: 36px;&quot;&gt;5&lt;br&gt;&lt;/span&gt;&lt;/font&gt;" style="text;html=1;strokeColor=none;fillColor=none;align=center;verticalAlign=middle;whiteSpace=wrap;rounded=0;" vertex="1" parent="1">
          <mxGeometry x="531" y="3020" width="60" height="22.5" as="geometry" />
        </mxCell>
        <mxCell id="J23fnJiVZXDmJQaBqTvZ-778" value="" style="endArrow=none;html=1;rounded=0;exitX=0.5;exitY=0;exitDx=0;exitDy=0;entryX=0.5;entryY=1;entryDx=0;entryDy=0;" edge="1" parent="1" source="J23fnJiVZXDmJQaBqTvZ-746" target="J23fnJiVZXDmJQaBqTvZ-747">
          <mxGeometry width="50" height="50" relative="1" as="geometry">
            <mxPoint x="558.5" y="2960" as="sourcePoint" />
            <mxPoint x="608.5" y="2910" as="targetPoint" />
          </mxGeometry>
        </mxCell>
        <mxCell id="J23fnJiVZXDmJQaBqTvZ-784" value="" style="shape=image;html=1;verticalAlign=top;verticalLabelPosition=bottom;labelBackgroundColor=#ffffff;imageAspect=0;aspect=fixed;image=https://cdn0.iconfinder.com/data/icons/evericons-24px-vol-2/24/0-128.png" vertex="1" parent="1">
          <mxGeometry x="708" y="2923.5" width="43" height="43" as="geometry" />
        </mxCell>
      </root>
    </mxGraphModel>
  </diagram>
</mxfile>
